<?xml version="1.0" encoding="utf-8"?>
<!-- Generator: Adobe Illustrator 17.0.0, SVG Export Plug-In . SVG Version: 6.00 Build 0)  -->
<!DOCTYPE svg PUBLIC "-//W3C//DTD SVG 1.1//EN" "http://www.w3.org/Graphics/SVG/1.1/DTD/svg11.dtd">
<svg version="1.1" id="Layer_1" xmlns="http://www.w3.org/2000/svg" xmlns:xlink="http://www.w3.org/1999/xlink" x="0px" y="0px"
	 width="352px" height="321px" viewBox="0 0 352 321" enable-background="new 0 0 352 321" xml:space="preserve">
<g>
	<path fill="none" d="M104.669,232.902c-0.902,5.967-1.86,11.216-2.355,16.504c-0.1,1.067,1.302,2.612,2.438,3.374
		c12.401,8.319,24.339,17.17,34.482,27.904c4.357,4.611,7.914,9.888,11.892,14.822c0.71,0.881,1.702,1.561,2.564,2.334
		C141.278,273.705,127.233,250.907,104.669,232.902z"/>
	<path fill="none" d="M215.567,240.409c-2.629-1.941-5.11-1.808-7.457,1.338c-6.111,8.191-6.344,8.158,2.405,13.618
		c7.775,4.852,16.127,8.975,23.463,14.34c13.654,9.984,24.03,22.724,32.278,37.004c0.657,1.137,1.658,2.099,2.499,3.142
		c0.373-0.279,0.746-0.558,1.119-0.837c-12.43-20.193-25.076-40.272-41.474-57.938C224.675,247.06,220.056,243.722,215.567,240.409z
		"/>
	<path fill="none" d="M55.508,250.821c1.855,14.204,3.638,27.857,5.478,41.943c1.271-0.672,1.594-0.735,1.681-0.904
		c4.265-8.326,11.155-9.297,19.629-6.415c5.843,1.986,11.834,3.583,17.698,5.518c5.81,1.917,10.143,5.399,12.142,11.297
		c1-0.198,1.92-0.38,2.724-0.539C117.457,297.201,69.181,255.561,55.508,250.821z"/>
	<path fill="none" d="M138.501,239.182c11.211,9.779,22.582,19.397,33.927,29.08c1.606-2.8,3.494-5.997,5.25-9.257
		c0.27-0.501,0.142-1.397-0.158-1.935c-9.487-17.027-19.107-33.978-33.647-47.861c-0.87-0.831-1.852-1.564-2.82-2.298
		c-0.358-0.271-0.827-0.412-2.209-1.073c-0.961,10.011-1.981,19.313-2.624,28.638C136.114,236.015,137.238,238.08,138.501,239.182z"
		/>
	<path fill="none" d="M231.101,288.674c-9.89-9.087-19.665-18.296-29.859-27.073c-3.514-3.026-8.086-4.985-12.248-7.314
		c-1.688-0.945-3.224-0.889-4.194,1.205c-5.066,10.936-10.238,21.829-15.287,32.772c-0.684,1.482-0.942,3.152-1.272,4.758
		c-0.159,0.774-0.027,1.602-0.027,2.698c5.333,0.297,9.255-2.464,13.32-4.805c1.055-0.608,2.099-1.327,2.916-2.189
		c6.045-6.378,13.685-6.269,21.352-4.089c7.477,2.127,14.682,5.101,22.009,7.695c2.586,0.916,5.182,1.808,7.773,2.71
		c0.21-0.334,0.42-0.669,0.63-1.003C234.516,292.245,232.924,290.349,231.101,288.674z"/>
	<path fill="none" d="M226.432,216.052c-2.376,5.283-4.633,10.615-6.743,15.996c-0.333,0.85,0.04,2.222,0.601,3.039
		c0.793,1.154,2.122,1.968,3.123,3.012c3.168,3.306,6.289,6.651,9.528,10.087c3.421-2.791,5.838-4.762,8.468-6.908
		c8.087,9.551,14.411,19.895,20.032,30.623c5.61,10.705,10.98,21.52,16.455,32.288c-6.877-34.938-21.826-66.144-48.232-92.871
		C228.36,213.195,227.123,214.515,226.432,216.052z"/>
	<path fill="#147EC2" d="M291.117,274.759c-0.577-0.434-1.195-0.796-1.864-1.085c-0.71-0.409-1.106-0.63-1.106-0.63l-0.043,0.212
		c-2.917-0.862-6.772-0.679-12.404,0.225c-0.357,0.058-0.733,0.007-1.225,0.007c-11.866-27.235-24.406-54.165-47.108-76.544
		c-2.753,5.791-5.488,10.988-7.708,16.374c-2.188,5.309-3.854,10.808-5.831,16.458c-1.099-0.652-2.423-1.438-4.328-2.568
		c-4.283,6.297-8.538,12.553-12.836,18.872c-15.958-22.131-33.991-42.466-63.546-51.444c-0.486,13.892-0.939,26.881-1.403,40.151
		c-10.929-3.496-20.698-9.692-32.938-9.787c-0.771,8.084-1.513,15.872-2.302,24.146c-2.444-0.399-4.59-0.797-6.752-1.094
		c-10.111-1.387-20.22-2.796-30.348-4.071c-1.951-0.246-3.988,0.001-5.976,0.143c-1.942,0.139-2.91,1.097-2.573,3.055
		c2.535,14.696,5.03,29.399,7.595,44.091c0.28,1.603,0.926,3.15,1.555,5.228c-5.869,1.845-11.741,3.691-17.688,5.561
		c-5.171-1.046-10.351-2.045-15.549-2.961c-0.786-0.139-1.568-0.328-2.346-0.543c-4.517,4.454-8.339,9.007-10.513,13.228h323.317
		C329.068,297.842,300.449,280.246,291.117,274.759z M138.845,205.838c1.382,0.661,1.851,0.803,2.209,1.073
		c0.968,0.734,1.949,1.467,2.82,2.298c14.54,13.883,24.16,30.834,33.647,47.861c0.3,0.538,0.428,1.434,0.158,1.935
		c-1.756,3.26-3.644,6.456-5.25,9.257c-11.345-9.683-22.716-19.301-33.927-29.08c-1.264-1.103-2.387-3.167-2.281-4.706
		C136.864,225.151,137.883,215.849,138.845,205.838z M114.86,301.721c-0.804,0.159-1.725,0.341-2.724,0.539
		c-1.999-5.897-6.332-9.379-12.142-11.297c-5.864-1.935-11.855-3.531-17.698-5.518c-8.474-2.882-15.364-1.911-19.629,6.415
		c-0.087,0.169-0.409,0.232-1.681,0.904c-1.84-14.086-3.623-27.739-5.478-41.943C69.181,255.561,117.457,297.201,114.86,301.721z
		 M151.125,295.506c-3.978-4.934-7.535-10.211-11.892-14.822c-10.143-10.734-22.08-19.585-34.482-27.904
		c-1.136-0.762-2.538-2.307-2.438-3.374c0.496-5.288,1.454-10.537,2.355-16.504c22.564,18.005,36.608,40.803,49.02,64.937
		C152.827,297.066,151.835,296.386,151.125,295.506z M235.585,295.042c-2.591-0.903-5.187-1.795-7.773-2.71
		c-7.328-2.594-14.532-5.569-22.009-7.695c-7.666-2.18-15.306-2.29-21.352,4.089c-0.817,0.862-1.862,1.581-2.916,2.189
		c-4.064,2.342-7.987,5.102-13.32,4.805c0-1.097-0.132-1.924,0.027-2.698c0.33-1.606,0.588-3.276,1.272-4.758
		c5.048-10.943,10.221-21.836,15.287-32.772c0.97-2.094,2.506-2.15,4.194-1.205c4.162,2.33,8.734,4.289,12.248,7.314
		c10.194,8.777,19.969,17.986,29.859,27.073c1.822,1.675,3.415,3.571,5.114,5.365C236.005,294.374,235.795,294.708,235.585,295.042z
		 M268.756,309.85c-0.841-1.043-1.842-2.005-2.499-3.142c-8.248-14.28-18.624-27.019-32.278-37.004
		c-7.337-5.365-15.689-9.488-23.463-14.34c-8.749-5.46-8.516-5.427-2.405-13.618c2.347-3.146,4.827-3.278,7.457-1.338
		c4.489,3.314,9.107,6.652,12.834,10.667c16.398,17.666,29.044,37.745,41.474,57.938
		C269.502,309.292,269.129,309.571,268.756,309.85z M261.441,271.902c-5.622-10.728-11.945-21.072-20.032-30.623
		c-2.631,2.146-5.047,4.118-8.468,6.908c-3.239-3.436-6.36-6.781-9.528-10.087c-1.001-1.044-2.33-1.858-3.123-3.012
		c-0.561-0.817-0.934-2.189-0.601-3.039c2.11-5.381,4.368-10.714,6.743-15.996c0.692-1.537,1.928-2.858,3.232-4.734
		c26.406,26.727,41.355,57.933,48.232,92.871C272.42,293.422,267.05,282.607,261.441,271.902z"/>
	<path fill="#147EC2" d="M357.732,312.98c-6.802,0.012-13.604-0.022-20.406-0.069l1.472-0.736c0.057-0.132,0.088-0.27,0.136-0.404
		H12.335c0.042,0.134,0.07,0.272,0.12,0.404l1.3,0.736c-6.008,0.047-12.016,0.081-18.023,0.069
		c-3.649-0.007-6.854,0.389-9.682,3.246c-1.781,1.8-3.855,3.273-5.9,4.774h395.224c-2.315-1.501-4.663-2.974-6.68-4.774
		C365.492,313.369,361.863,312.973,357.732,312.98z"/>
</g>
</svg>
