<?xml version="1.0" encoding="utf-8"?>
<!-- Generator: Adobe Illustrator 17.0.0, SVG Export Plug-In . SVG Version: 6.00 Build 0)  -->
<!DOCTYPE svg PUBLIC "-//W3C//DTD SVG 1.1//EN" "http://www.w3.org/Graphics/SVG/1.1/DTD/svg11.dtd">
<svg version="1.1" id="Layer_1" xmlns="http://www.w3.org/2000/svg" xmlns:xlink="http://www.w3.org/1999/xlink" x="0px" y="0px"
	 width="352px" height="321px" viewBox="0 0 352 321" enable-background="new 0 0 352 321" xml:space="preserve">
<g>
	<polygon fill="#147EC2" points="175.466,286.979 184.913,225.771 164.757,225.771 	"/>
</g>
<g>
	<polygon fill="#147EC2" points="184.944,224.172 175.566,164.899 164.757,224.172 	"/>
</g>
<g>
	<path fill="#147EC2" d="M346.723,315.257l-46.086-12.04l-28.929-14.364l-31.151-27.46l-22.805-33.863l-17.181-42.689
		l-16.003-75.595l-8.145-87.753l6.717,81.005l0.198,2.384l1.54,7.699l13.233,66.149l0.364,1.822l26.948,134.705h-21.771
		l-18.774-202.661l-1.54-7.714l17.089,206.491h-3.319l-20.472-10.853l-18.941,10.853h-4.543l16.969-211.485l-1.419,7.136
		L149.94,315.257h-0.037h-22.677l26.83-134.705l0.363-1.822l14.284-71.718l1.419-7.123l0.153-1.901l6.149-76.495l-7.473,82.777
		l-16.981,80.571l-17.105,42.689l-22.704,33.864l-31.014,27.46l-28.802,14.364L6.462,315.257v3.782h343.344v-3.782H346.723z
		 M49.997,304.388l4.997-1.517l1.319-0.695l24.175-12.739l-29.162,25.82H31.843l23.15-12.386l-5.25,1.618l-21.264,10.768H14.204
		L49.997,304.388z M84.763,287.184l0.311-0.29l26.528-24.669l-35.556,53.032H54.574L84.763,287.184z M114.964,259.099l0.28-0.437
		l19.014-29.62l-34.546,86.214H78.915L114.964,259.099z M137.409,224.134l0.355-0.929l13.655-35.749l-26.935,127.801h-21.88
		L137.409,224.134z M296.653,302.176l1.324,0.695l23.949,12.386h-20.264l-29.291-25.82L296.653,302.176z M228.179,315.257
		l-27.054-127.802l13.715,35.75l0.357,0.93l34.959,91.123H228.179z M253.061,315.257l-34.699-86.214l19.098,29.62l0.281,0.437
		l36.209,56.158L253.061,315.257L253.061,315.257z M276.831,315.257l-35.713-53.032l26.646,24.669l0.313,0.29l30.323,28.073
		L276.831,315.257L276.831,315.257z M325.339,315.257l-21.981-10.759l35.589,10.759H325.339z"/>
	<path fill="#147EC2" d="M351.765,321H4.501v-3.782h-3.5l3.5-1.063v-2.41l47.149-12.373l28.39-14.158l30.632-27.122l22.45-33.483
		l16.965-42.339l16.922-80.291l7.463-82.662l1.953,0.167l1.952-0.171l8.134,87.64l15.944,75.316l17.04,42.339l22.548,33.482
		l30.769,27.123l28.517,14.16l45.647,11.925h4.79v3.787l0.441,0.133h-0.441L351.765,321L351.765,321z M151.744,317.079h50.109
		l-0.346-3.745h-4.885l-19.947-10.575l-18.456,10.575h-6.137L151.744,317.079z M302.403,313.297h11.465l-27.97-14.549
		L302.403,313.297z M277.874,313.297h15.521l-41.223-38.165L277.874,313.297z M254.385,313.297h15.968l-42.493-65.905
		L254.385,313.297z M229.768,313.297h17.535L208.18,211.319L229.768,313.297z M205.44,313.297h17.593L190.267,149.51L205.44,313.297
		z M129.616,313.297h18.532l15.312-169.921L129.616,313.297z M105.451,313.297h17.442l21.472-101.881L105.451,313.297z
		 M82.502,313.297h15.884l26.383-65.842L82.502,313.297z M59.561,313.297h15.44l25.567-38.133L59.561,313.297z M39.662,313.297
		h10.919l16.418-14.536l-11.09,5.843L39.662,313.297z M27.406,313.297h0.605l0.906-0.459L27.406,313.297z M197.596,309.413h0.701
		l-17.11-206.752l-4.733-57.078l-21.177,263.83h1.896l19.426-11.13L197.596,309.413z"/>
	<polygon fill="#147EC2" points="4.907,313.745 1.407,315.119 1.407,321 4.907,321 	"/>
</g>
</svg>
