<?xml version="1.0" encoding="utf-8"?>
<!-- Generator: Adobe Illustrator 17.0.0, SVG Export Plug-In . SVG Version: 6.00 Build 0)  -->
<!DOCTYPE svg PUBLIC "-//W3C//DTD SVG 1.1//EN" "http://www.w3.org/Graphics/SVG/1.1/DTD/svg11.dtd">
<svg version="1.1" id="Layer_1" xmlns="http://www.w3.org/2000/svg" xmlns:xlink="http://www.w3.org/1999/xlink" x="0px" y="0px"
	 width="352px" height="321px" viewBox="0 0 352 321" enable-background="new 0 0 352 321" xml:space="preserve">
<g>
	<path fill="#147EC2" d="M7.442,228.522c41.327-0.019,82.653-0.015,123.98-0.015c0.842,0,1.683,0,2.471,0c0-6.572,0-12.894,0-19.339
		c-0.824,0-1.543,0-2.259,0c-41.689,0-83.375-0.003-125.066,0c-0.506,0-1.123-0.155-1.495,0.053
		c-0.506,0.277-1.068,0.787-1.185,1.282c-0.407,1.759-0.595,3.562-0.944,5.332c-0.684,3.472-1.408,6.934-2.163,10.393
		c-0.086,0.392-0.514,0.726-0.781,1.088c0,0.13,0,0.26,0,0.392c0.688,0.374,1.363,1.042,2.068,1.066
		C3.851,228.84,5.651,228.522,7.442,228.522z"/>
	<path fill="#147EC2" d="M344.854,272.883c-3.301-0.105-3.303-0.108-3.303,2.975c0,12.315-0.007,24.63,0.01,36.945
		c0.003,1.276,0.167,2.55,0.273,4.096c-0.842,0.093-1.895,0.012-2.758,0.339c-2.725,1.046-2.581-0.444-2.578-2.11
		c0.032-13.298,0.017-26.597,0.017-39.894c0-0.752,0-1.503,0-2.347c-6.879,0-13.399,0-19.923,0c-3.372,0-3.372,0-3.372,2.962
		c0,13.1,0.015,26.204-0.017,39.303c0,0.649-0.126,1.62-0.585,1.886c-1.815,1.047-3.807-0.09-3.807-2.037
		c0.004-13.234,0.004-26.466-0.003-39.697c0-2.421-0.017-2.325-3.122-2.455c-2.065-0.082-2.958,0.322-2.94,2.445
		c0.109,12.315,0.044,24.63,0.064,36.945c0.004,1.469,0.169,2.937,0.261,4.445c-3.67,1.543-5.293,0.711-5.293-2.798
		c0-12.84,0-25.677,0-38.519c0-0.764,0-1.529,0-2.485c-0.944,0-1.653,0-2.361,0c-6.02,0.003-12.042,0-18.062,0.003
		c-2.875,0-2.882,0.004-2.882,2.629c-0.008,13.23-0.052,26.463,0.034,39.697c0.013,1.801-0.813,1.95-2.438,2.031
		c-1.904,0.093-2.054-0.643-2.046-2.077c0.057-12.709,0.03-25.416,0.027-38.124c0-4.562-0.003-4.562-5.114-4.084
		c0,0-0.096,0.093-0.383,0.39c0,0.374,0,1.012,0,1.647c0,13.364,0.004,26.726,0.004,40.092c0,0.522,0.154,1.116-0.069,1.549
		c-0.212,0.411-0.835,0.933-1.252,0.917c-1.321-0.046-2.629-0.325-4.217-0.553c0-14.572,0-29.267,0-43.997
		c-7.694,0-15.125,0-22.812,0c0,14.81,0,29.508,0,44.157c-1.624,0-2.982,0-4.642,0c0-14.84,0-29.434,0-44.294
		c-1.965,0-3.792,0-5.747,0c0,1.092,0,1.87,0,2.65c0,13.234,0,26.467,0,39.7c0,0.522,0.14,1.107-0.071,1.552
		c-0.171,0.367-0.784,0.819-1.174,0.798c-1.24-0.062-2.471-0.325-3.457-0.473c0-4.445,0-8.862,0-13.277
		c0-9.498-0.007-18.998,0.007-28.497c0.004-1.181-0.041-2.36-1.742-2.411c-2.585-0.077-5.172-0.019-7.78-0.019
		c-0.065,0.492-0.13,0.745-0.13,0.995c-0.007,11.401-0.009,22.797,0.004,34.197c0,0.507,0.16,1.017,0.29,1.518
		c0.644,2.488,1.301,4.973,1.962,7.484c-5.049,0.492-5.298,0.348-6.418-3.602c-0.071-0.25-0.044-0.522-0.099-0.779
		c-0.208-0.961-0.779-1.335-1.941-1.363c-4.945-0.12-4.943-0.162-6.26,4.098c-0.059,0.186-0.037,0.434-0.164,0.556
		c-0.437,0.417-0.883,1.066-1.399,1.128c-1.328,0.16-2.698,0.056-4.131,0.056c0.058-0.504,0.028-0.905,0.154-1.26
		c1.622-4.557,2.113-9.206,2.068-14c-0.147-15.262-0.054-30.526-0.054-45.79c0-0.701,0-1.404,0-2.213c-1.122,0-2.009,0-3.156,0
		c0-3.804,0-7.505,0-11.208c-11.114,0-21.967,0-33.075,0c0,3.799,0,7.497,0,11.277c-1.099-0.074-1.934-0.134-3.061-0.211
		c0,0.896,0,1.664,0,2.43c0,16.508-0.027,33.014,0.039,49.524c0.007,1.916,0.448,3.841,0.818,5.743
		c0.377,1.91,0.914,3.796,1.387,5.721c-1.321,0-2.262-0.052-3.19,0.01c-1.499,0.102-2.256-0.311-2.652-1.796
		c-1.112-4.173-1.215-4.101-6.02-4.07c-1.369,0.01-1.862,0.48-2.156,1.61c-1.112,4.26-1.147,4.254-5.873,4.312
		c0,0-0.257-0.108-0.385-0.169c-0.033-0.123-0.106-0.253-0.089-0.374c0.045-0.318,0.1-0.636,0.199-0.943
		c1.434-4.383,2.109-8.82,2.009-13.431c-0.199-9.101-0.059-18.211-0.059-27.314c0-0.685,0-1.369,0-1.978c-3.296,0-6.226,0-9.371,0
		c0,14.819,0,29.478,0,44.172c-0.982,0-1.962-0.24-2.68,0.046c-2.362,0.953-2.318-0.309-2.318-1.789
		c0.017-13.364,0.01-26.726,0.01-40.089c0-0.766,0-1.534,0-2.386c-1.995,0-3.762,0-5.763,0c0,14.745,0,29.378,0,44.148
		c-1.644,0-3.054,0-4.731,0c0-14.742,0-29.434,0-44.136c-7.699,0-15.129,0-22.823,0c0,14.816,0,29.505,0,44.192
		c-1.201,0-2.269-0.267-3.053,0.046c-2.595,1.044-2.372-0.461-2.372-1.914c0.01-13.362,0.007-26.726,0.007-40.089
		c0-0.754,0-1.508,0-2.362c-0.838,0-1.341,0.004-1.841,0c-3.651-0.028-3.656-0.03-3.656,3.311
		c0.007,12.971-0.017,25.941,0.054,38.912c0.01,1.604-0.448,2.11-2.282,2.147c-1.965,0.041-2.235-0.667-2.228-2.188
		c0.052-13.297-0.004-26.596,0.078-39.894c0.01-1.852-0.664-2.358-2.635-2.325c-5.73,0.099-11.459,0.037-17.189,0.037
		c-1.131,0-2.262,0-3.573,0c0,14.928,0,29.574,0,44.303c-1.181,0-2.174,0.012-3.169-0.003c-1.62-0.022-2.461-1.051-2.13-2.536
		c0.155-0.689,0.305-1.393,0.305-2.089c0.021-12.383,0.017-24.763,0.013-37.144c0-2.531-0.007-2.531-2.96-2.531
		c-3.036-0.003-3.039-0.003-3.043,2.464c0,13.101,0.007,26.204-0.003,39.304c-0.004,0.824-0.114,1.65-0.172,2.451
		c-4.236,0.179-4.234,0.179-4.234-3.344c0.004-12.776-0.037-25.549,0.045-38.321c0.013-1.929-0.497-2.687-2.777-2.6
		c-4.056,0.158-8.121,0.046-12.185,0.046c-2.73,0-5.462,0-8.378,0c0,0.94,0,1.647,0,2.357c0,9.823,0,19.65,0,29.476
		c0,3.735,0.041,7.469-0.041,11.203c-0.013,0.571-0.636,1.641-0.889,1.62c-1.551-0.132-3.078-0.513-4.439-0.775
		c0.137-1.213,0.321-2.097,0.321-2.984c0.017-12.513,0.028-25.026-0.013-37.537c-0.004-1.112-0.342-2.222-0.504-3.202
		c-1.828,0-3.306,0-4.87,0c0,8.022-0.004,15.879,0,23.738c0.003,6.813,0.208,13.631-0.056,20.435
		c-0.167,4.293,0.35,3.762,3.766,3.762c111.921,0,223.844,0.004,335.766,0.007c0.844,0,1.69,0,2.57,0c0-16.174,0-32.102,0-48.102
		C346.011,272.883,345.429,272.899,344.854,272.883z"/>
	<path fill="#147EC2" d="M220.182,209.166c-0.831,0-1.664,0-2.522,0c0,6.586,0,12.852,0,19.393c44.516,0,88.972,0,133.742,0
		c-0.541-2.636-1.144-5.323-1.629-8.027c-0.49-2.729-1.021-5.465-1.24-8.216c-0.192-2.39-0.818-3.147-3.474-3.147
		C303.431,209.166,261.806,209.166,220.182,209.166z"/>
	<path fill="#147EC2" d="M212.459,235.659c-0.074-11.267-0.02-22.534-0.01-33.801c0-1.487,0-2.977,0-4.582
		c-24.494,0-48.751,0-73.231,0c0.034,13.611-0.061,27.098,0.127,40.63c4.658,0,8.701,0,12.945,0
		c0.041-0.527,0.082-0.847,0.089-1.168c0.086-4.655,0.169-9.31,0.261-13.965c0.013-0.681-0.079-1.404,0.139-2.034
		c1.384-3.987,3.393-7.549,6.829-10.584c4.813-4.251,10.58-5.932,16.957-5.88c5.175,0.044,9.978,1.652,14.132,4.641
		c4.029,2.894,6.535,6.769,8.04,11.025c0.846,2.399,0.483,5.163,0.538,7.762c0.071,3.392,0.016,6.783,0.016,10.278
		c3.694,0,7.145-0.098,10.587,0.037C211.916,238.096,212.47,237.467,212.459,235.659z"/>
	<path fill="#147EC2" d="M115.095,256.901c-0.766,0-1.673,0-2.581,0c-35.007,0-70.016,0-105.021,0c-3.4,0-3.403,0-4.306,3.033
		c-0.807,2.701-1.598,5.403-2.433,8.238c38.167,0,76.055,0,114.341,0C115.095,264.401,115.095,260.8,115.095,256.901z"/>
	<path fill="#147EC2" d="M345.127,256.869c-35.302,0.046-70.602,0.04-105.905,0.04c-0.92,0-1.837,0-2.59,0c0,3.867,0,7.521,0,11.257
		c38.174,0,76.061,0,114.208,0c-0.92-3.298-1.776-6.41-2.666-9.517C347.77,257.229,346.743,256.864,345.127,256.869z"/>
	<path fill="#147EC2" d="M160.184,176.182c5.22-0.012,10.439-0.007,15.659-0.007c5.291,0,10.583-0.009,15.875,0.007
		c1.119,0.003,2.066-0.086,1.701-1.453c-0.298-1.119-0.705-2.223-0.911-3.354c-0.773-4.307-1.201-8.681-2.286-12.921
		c-0.968-3.781-1.99-7.552-3.069-11.31l-11.979-48.664l-13.289,55.574l0.451-0.055c-0.701,2.887-1.356,5.784-1.991,8.681
		c-0.848,3.869-0.828,7.9-1.746,11.756C158.161,176.273,158.815,176.185,160.184,176.182z"/>
	<path fill="#147EC2" d="M77.243,180.389c5.09,0,10.015,0,15.077,0c-0.162-0.448-0.329-0.745-0.37-1.051
		c-0.53-3.905-1.26-7.77-2.197-11.587l0.047-0.004l-13.692-51.949l-12.484,54.366l0.222-0.021c-0.274,1.09-0.545,2.181-0.809,3.274
		c-0.863,3.576-1.517,7.196-2.239,10.8c-0.667,3.318-1.32,6.637-1.926,9.963c-0.22,1.189-0.298,2.402-0.415,3.607
		c-0.192,1.975-0.359,3.954-0.561,6.161c4.768,0,9.741,0,14.656,0C74.131,196.022,75.699,188.149,77.243,180.389z"/>
	<path fill="#147EC2" d="M274.44,180.393c1.567,7.882,3.125,15.718,4.675,23.524c5.097,0,10.015,0,14.904,0
		c-0.38-1.867-0.795-3.46-1.007-5.072c-0.318-2.461-0.342-4.962-0.77-7.404c-0.811-4.618-1.848-9.206-2.73-13.817
		c-0.504-2.618-0.637-5.317-1.373-7.876c-0.825-2.869-1.675-5.735-2.582-8.585l-10.913-42.949l-11.465,45.861
		c-1.425,5.407-2.781,10.842-4.199,16.318C264.582,180.393,269.532,180.393,274.44,180.393z"/>
	<path fill="#147EC2" d="M83.397,184.85c-0.671,0.009-1.801,0.353-1.925,0.745c-0.694,2.195-1.218,4.439-1.656,6.69
		c-0.534,2.742-0.716,5.555-1.434,8.254c-0.986,3.688-1.144,3.653,2.94,3.653c16.669,0,33.335-0.003,50.004-0.003
		c0.848,0,1.697,0,2.771,0c0-3.261,0.079-6.321-0.034-9.375c-0.054-1.524,0.426-2.149,2.199-2.049
		c2.132,0.119,4.277,0.028,6.469,0.028c0-2.77,0-5.237,0-7.976c-0.873,0-1.517,0-2.161,0c-14.854,0-29.709,0-44.564,0
		C91.804,184.817,87.6,184.782,83.397,184.85z"/>
	<path fill="#147EC2" d="M215.509,192.767c1.654-0.081,2.143,0.51,2.098,1.945c-0.096,3.063-0.03,6.133-0.03,9.391
		c0.729,0.04,1.153,0.083,1.581,0.083c17.617,0.003,35.238,0.003,52.855,0.003c0.29,0,0.708,0.105,0.846-0.028
		c0.37-0.353,0.931-0.854,0.863-1.215c-0.466-2.581-1.09-5.14-1.627-7.711c-0.595-2.84-1.376-5.673-1.646-8.537
		c-0.175-1.84-1.129-1.898-2.66-1.895c-18.853,0.025-37.705,0.016-56.554,0.016c-0.76,0-1.517,0-2.191,0c0,2.847,0,5.366,0,7.976
		C211.317,192.792,213.419,192.869,215.509,192.767z"/>
	<path fill="#147EC2" d="M191.31,217.042c-3.45-5.349-8.744-7.743-15.59-7.92c-8.584-0.22-16.084,5.614-17.597,12.946
		c-1.037,5.035-0.198,10.382-0.198,15.931c11.915,0,23.994,0,36.212,0c0-4.256-0.195-8.25,0.059-12.218
		C194.408,222.472,193.025,219.703,191.31,217.042z"/>
	<path fill="#147EC2" d="M276.227,252.367c0-6.562,0-12.951,0-19.431c-11.73,0-23.371,0-35.169,0c0,6.594,0,13.058,0,19.431
		C253.071,252.367,264.702,252.367,276.227,252.367z"/>
	<path fill="#147EC2" d="M316.766,252.46c0-6.658,0-13.097,0-19.543c-11.808,0-23.452,0-34.983,0c0,6.579,0,13.045,0,19.543
		C293.474,252.46,305.054,252.46,316.766,252.46z"/>
	<path fill="#147EC2" d="M110.662,252.386c0-6.454,0-12.761,0-19.054c-11.839,0-23.555,0-35.193,0c0,6.454,0,12.772,0,19.054
		C87.217,252.386,98.851,252.386,110.662,252.386z"/>
	<path fill="#147EC2" d="M69.89,252.463c0-6.503,0-12.821,0-19.137c-11.713,0-23.347,0-34.994,0c0,6.439,0,12.751,0,19.137
		C46.629,252.463,58.209,252.463,69.89,252.463z"/>
	<path fill="#147EC2" d="M175.114,181.737c4.067-0.341,6.87,1.529,9.453,3.87c2.122,1.922,2.256,4.482,2.119,7.078
		c5.733,0,11.281,0,16.881,0c0-7.774,0-15.446,0-23.097c-1.185,0-2.181,0-3.437,0c0,3.644,0,7.203,0,10.779
		c-16.319,0-32.376,0-48.693,0c0-3.682,0-7.243,0-10.711c-1.318,0-2.358,0-3.34,0c0,7.783,0,15.406,0,23.063
		c5.668,0,11.162,0,16.843,0C164.229,186.037,170.165,182.151,175.114,181.737z"/>
	<path fill="#147EC2" d="M346.835,252.414c0-6.43,0-12.739,0-19.326c-8.157,0-16.2,0-24.562,0c0,6.398,0,12.862,0,19.326
		C330.467,252.414,338.614,252.414,346.835,252.414z"/>
	<path fill="#147EC2" d="M29.724,233.302c-8.473,0-16.626,0-24.887,0c0,6.407,0,12.714,0,19.038
		c0.298,0.081,0.496,0.176,0.695,0.176c7.461,0.012,14.923-0.003,22.385,0.034c1.486,0.005,1.835-0.656,1.821-1.837
		c-0.037-3.595-0.013-7.196-0.013-10.794C29.724,237.725,29.724,235.529,29.724,233.302z"/>
	<path fill="#147EC2" d="M140.051,268.11c0-4.818,0-9.492,0-14.283c-1.01,0.049-1.849,0.089-2.838,0.139c0-2.421,0-4.761,0-7.27
		c-11.36-0.359-19.527,9.712-17.466,21.414C126.518,268.11,133.291,268.11,140.051,268.11z"/>
	<path fill="#147EC2" d="M214.393,246.661c0,2.541,0,4.912,0,7.254c-1.064,0-1.893,0-2.813,0c0,4.792,0,9.463,0,14.222
		c6.886,0,13.646,0,20.392,0C233.849,255.514,225.272,246.482,214.393,246.661z"/>
	<path fill="#147EC2" d="M200.668,304.815c0.008,0.754,0.566,1.916,1.215,2.176c2.742,1.084,4.854-0.236,4.857-2.94
		c0.025-15.967,0.021-31.932,0.004-47.898c-0.004-2.204-0.357-2.3-3.576-2.415c-2.044-0.07-2.602,0.644-2.589,2.394
		c0.076,8.048,0.034,16.098,0.034,24.145C200.614,288.456,200.583,296.636,200.668,304.815z"/>
	<path fill="#147EC2" d="M151.035,256.096c-0.004-0.718-0.319-1.997-0.668-2.051c-1.451-0.219-3.053-0.316-4.419,0.069
		c-0.575,0.16-0.982,1.625-0.985,2.5c-0.059,15.57-0.041,31.144-0.039,46.716c0,0.457-0.006,0.919,0.041,1.373
		c0.223,2.186,0.677,2.337,4.045,2.33c2.133-0.003,2.057-1.149,2.057-2.451c-0.009-8.05-0.007-16.099-0.007-24.145
		C151.062,272.323,151.079,264.209,151.035,256.096z"/>
	<path fill="#147EC2" d="M235.783,252.815c0.22-0.158,0.439-0.318,0.661-0.476c-0.27-6.476-0.541-12.955-0.811-19.397
		c-6.271,0-12.096,0-18.052,0c0,2.418,0.078,4.702-0.032,6.977c-0.068,1.458,0.326,2.101,2.102,2.479
		c5.812,1.237,10.508,4.024,13.663,8.772C233.801,251.9,234.945,252.275,235.783,252.815z"/>
	<path fill="#147EC2" d="M133.972,241.368c0.089-2.611,0.05-5.233,0.05-8.008c-6.064,0-12.129,0-17.822,0
		c-0.297,2.418-0.738,4.655-0.811,6.906c-0.13,4.033-0.037,8.071-0.037,12.856c1.352-0.784,2.328-1.153,2.987-1.789
		c0.787-0.761,1.185-1.843,1.955-2.624c3.379-3.413,7.452-5.753,12.568-6.451C133.291,242.197,133.961,241.688,133.972,241.368z"/>
	<path fill="#147EC2" d="M154.406,242.63c-3.71,0-7.177-0.04-10.641,0.049c-0.5,0.013-1.367,0.643-1.397,1.03
		c-0.15,1.855-0.069,3.725-0.069,5.505c4.255,0,8.181,0,12.107,0C154.406,246.967,154.406,244.899,154.406,242.63z"/>
	<path fill="#147EC2" d="M209.307,244.257c-0.078-0.591-0.975-1.518-1.553-1.552c-2.886-0.169-5.785-0.111-8.681-0.1
		c-1.249,0.007-1.999,0.436-1.913,1.759c0.102,1.559,0.024,3.126,0.024,4.891c4.186,0,8.116,0,12.198,0
		C209.383,247.496,209.526,245.854,209.307,244.257z"/>
	<path fill="#147EC2" d="M178.886,187.36c-1.934-1.119-4.049-1.409-6.011-0.044c-1.882,1.315-3.282,2.903-2.568,5.383
		c3.694,0,7.359,0,11.166,0C181.813,190.269,180.903,188.529,178.886,187.36z"/>
	<path fill="#147EC2" d="M346.855,195.972c-2.248,0-4.309,0-6.427,0c0,2.764,0,5.407,0,8.096c2.207,0,4.268,0,6.427,0
		C346.855,201.348,346.855,198.747,346.855,195.972z"/>
	<path fill="#147EC2" d="M11.327,197.169c-0.024-0.452-0.726-1.206-1.174-1.243c-1.756-0.145-3.535-0.059-5.278-0.059
		c0,2.912,0,5.546,0,8.25c2.153,0,4.153,0,6.507,0C11.381,201.691,11.446,199.425,11.327,197.169z"/>
</g>
</svg>
