<?xml version="1.0" encoding="utf-8"?>
<!-- Generator: Adobe Illustrator 17.0.0, SVG Export Plug-In . SVG Version: 6.00 Build 0)  -->
<!DOCTYPE svg PUBLIC "-//W3C//DTD SVG 1.1//EN" "http://www.w3.org/Graphics/SVG/1.1/DTD/svg11.dtd">
<svg version="1.1" id="Layer_1" xmlns="http://www.w3.org/2000/svg" xmlns:xlink="http://www.w3.org/1999/xlink" x="0px" y="0px"
	 width="352px" height="321px" viewBox="0 0 352 321" enable-background="new 0 0 352 321" xml:space="preserve">
<g>
	<path id="XMLID_4308_" fill="#147EC2" d="M343.547,131.839c-3.527,0.986-5.849,1.665-8.184,2.289
		c-20.924,5.548-38.12,3.457-49.293-14.919c-1.684-2.754-2.912-1.717-4.539-0.039c-4.356,4.494-8.598,9.092-13.212,13.365
		c-8.835,8.214-17.634,16.608-29.937,20.615c-7.965,2.595-11.453,0.181-11.672-7.374c-0.334-11.501,1.844-22.775,4.122-33.994
		c3.608-17.734,7.627-35.413,11.711-54.18c-4.519,5.316-8.422,9.858-13.254,13.633c-13.57,10.611-25.52,9.164-35.68-4.291
		c-0.735-0.986-1.431-2.023-2.102-3.044c-6.025-9.393-9.609-19.628-12.44-30.093c-1.844-6.818-3.389-13.688-5.332-21.56
		c-1.244,2.591-2.042,4.114-2.732,5.691c-6.477,14.205-13.275,28.285-21.477,41.758c-8.284,13.579-12.245,14.493-26.548,6.069
		c-5.567-3.293-10.859-6.983-16.682-10.757c3.206,13.546,6.42,26.52,9.351,39.529c3.704,16.546,7.35,33.097,8.28,50.026
		c0.161,3.005,0.419,6.566-3.151,8.214c-3.365,1.554-6.178-0.772-8.718-2.453c-10.124-6.711-18.422-15.157-26.782-23.53
		c-5.391-5.419-10.563-11.019-15.91-16.641c-2.241,1.826-2.278,4.206-3.232,6.174c-8.298,17.162-17.85,21.294-37.524,16.051
		c-2.732-0.715-5.449-1.468-8.142-2.272c-5.29-1.576-10.561-3.202-16.721-5.101c1.087,3.225,1.861,5.458,2.636,7.714
		c4.301,12.363,8.876,24.658,11.63,37.415c2.079,9.714-0.519,14.277-9.827,17.408c-5.807,1.933-6.006,2.346-1.093,5.764
		c16.049,11.162,31.544,22.899,46.958,34.744c9.371,7.177,19.336,13.707,27.873,21.76c5.491,5.17,8.241,10.912,5.172,18.122
		c-1.545,3.651-2.754,7.426-4.003,11.184c-0.554,1.7-2.593,3.509-0.93,5.174c1.349,1.338,3.566,0.249,5.391-0.022
		c23.674-3.61,47.329-7.243,71.027-10.787c9.962-1.503,13.79,0.698,16.678,9.483c3.212,9.714,3.627,19.786,4.579,29.79
		c0.216,2.184-1.781,6.405,2.198,6.084c3.112-0.233,1.305-4.275,1.009-6.656c-1.248-9.465-3.169-18.897-3.802-28.397
		c-0.596-8.944,3.98-11.95,13.769-10.502c24.231,3.599,48.522,7.016,72.71,10.842c5.528,0.862,4.636-0.895,3.35-4.059
		c-1.883-4.635-3.431-9.378-5.133-14.083c-2.159-5.975-0.458-11.162,4.262-15.532c4.218-3.898,8.479-7.833,13.137-11.291
		c21.057-15.582,41.166-32.205,62.725-47.253c4.556-3.182,4.398-3.486-1.349-5.386c-8.518-2.789-10.977-6.117-10.419-14.26
		c0.334-4.795,1.682-9.426,3.07-14.028C337.917,149.732,340.615,141.269,343.547,131.839 M165.768,321
		c1.41-12.188,3.193-24.351,4.122-36.572c0.635-8.162-2.516-10.179-11.234-8.819c-25.143,3.917-50.286,7.798-75.423,11.682
		c-5.886,0.912-6.281,0.408-4.241-4.779c1.764-4.489,3.307-9.068,5.272-13.507c3.19-7.265,1.168-13.065-4.976-18.432
		c-9.685-8.444-20.267-15.888-30.59-23.619C32.553,214.864,16.225,202.944,0,190.938v-3.06c2.296-0.788,4.576-1.593,6.896-2.324
		c8.022-2.579,10.263-5.476,8.795-13.116C12.501,155.564,6.42,139.411,0,123.358v-2.04c13.055,3.99,25.915,8.535,39.427,11.326
		c4.971,1.038,8.956,0.055,12.577-2.772c7.073-5.51,11.988-12.221,13.952-20.593c0.275-1.218,0.018-3.116,1.744-3.435
		c1.645-0.306,2.398,1.396,3.344,2.414c12.326,13.151,24.233,26.675,38.951,37.823c2.675,2.025,5.548,5.476,9.133,4.116
		c3.965-1.503,2.139-5.798,1.943-8.769c-1.13-18.103-5.51-35.765-9.532-53.461c-2.536-11.184-5.467-22.293-8.181-33.442
		c-0.32-1.305-0.914-2.63-0.137-4.025c2.097-0.504,2.988,1.128,4.199,2.023c7.01,5.205,14.065,10.375,22.21,14.133
		c7.527,3.49,10.004,3.042,14.48-3.363c10.224-14.652,17.278-30.686,24.727-46.557c1.388-2.97,2.494-6.065,3.741-9.09h3.409
		c4.26,9.09,8.383,18.216,12.797,27.251c4.681,9.5,9.57,18.932,15.754,27.735c4.994,7.119,8.24,7.963,16.367,3.9
		c9.528-4.778,18.245-10.611,26.55-17.481c-2.737,11.597-5.63,23.172-8.166,34.802c-4.218,19.379-9.214,38.669-9.886,58.507
		c-0.1,2.634-1.386,6.246,1.506,7.59c3.171,1.503,5.807-1.56,8.204-3.328c14.661-10.934,26.367-24.372,38.593-37.358
		c0.853-0.914,1.624-1.899,2.497-2.776c0.729-0.733,1.386-1.844,2.711-1.503c1.386,0.356,1.091,1.626,1.268,2.579
		c1.368,7.708,5.63,14.024,11.553,19.521c4.871,4.489,10.38,6.241,17.455,4.33c10.695-2.902,21.214-6.156,31.714-9.557
		c1.368-0.447,2.894-1.484,4.223-0.412c1.425,1.128,0.177,2.595-0.238,3.791c-5.19,14.783-10.857,29.435-13.79,44.771
		c-1.705,8.911,0.434,11.95,9.948,14.834c1.958,0.589,3.86,1.322,5.805,2.001v3.079c-25.818,18.161-50.266,37.788-75.327,56.753
		c-8.856,6.695-12.287,14.334-7.492,24.335c1.864,3.898,3.13,8.037,4.895,11.987c1.506,3.385,1.111,4.653-3.465,3.957
		c-25.143-3.867-50.347-7.483-75.485-11.274c-10.049-1.503-12.802,0.216-12.049,9.323c0.834,9.84,2.597,19.611,4.022,29.395
		c0.32,2.221,0.816,4.387,0.238,6.604L165.768,321L165.768,321z"/>
</g>
<path fill="none" d="M224.344,150.395c0.211-3.001,0.521-7.271,0.92-12.304C224.698,142.169,224.353,146.267,224.344,150.395z"/>
<path fill="#147EC2" d="M323.212,191.414c-7.533-2.35-9.707-5.155-9.215-12.017c0.295-4.041,1.487-7.944,2.715-11.821
	c2.259-7.161,4.646-14.293,7.238-22.239c-3.12,0.83-5.173,1.403-7.238,1.929c-18.504,4.675-33.714,2.913-43.594-12.573
	c-1.488-2.321-2.576-1.447-4.014-0.032c-3.852,3.787-7.604,7.662-11.684,11.263c-7.814,6.922-15.595,13.995-26.476,17.373
	c-6.43,1.997-9.532,0.432-10.176-4.69l-0.447,0.652c0,0,0.103-1.61,0.294-4.329c0.009-3.831,0.33-7.635,0.854-11.419
	c1.286-16.236,3.547-40.873,6.245-53.406c-1.536,1.481-3.101,2.888-4.813,4.161c-12.001,8.942-22.569,7.723-31.556-3.616
	c-0.649-0.83-1.265-1.704-1.859-2.564c-5.328-7.915-8.498-16.54-11.002-25.36c-1.631-5.745-2.997-11.535-4.716-18.169
	c-1.1,2.184-1.805,3.467-2.416,4.795c-5.728,11.97-11.74,23.835-18.994,35.19c-7.326,11.444-10.829,12.213-23.479,5.114
	c-2.931-1.652-5.785-3.431-8.694-5.264l6.522,49.104c1.445,7.463,2.574,14.967,3.012,22.563c0.142,2.532,0.371,5.533-2.787,6.922
	c-2.976,1.309-5.463-0.65-7.71-2.067c-8.953-5.655-16.293-12.773-23.686-19.829c-4.768-4.566-9.342-9.286-14.071-14.023
	c-1.982,1.538-2.015,3.545-2.859,5.203c-7.339,14.462-15.787,17.945-33.186,13.526c-2.416-0.602-4.819-1.237-7.2-1.914
	c-4.678-1.328-9.341-2.698-14.788-4.299c0.962,2.717,1.645,4.599,2.331,6.5c3.803,10.418,7.85,20.779,10.285,31.53
	c1.838,8.186-0.459,12.031-8.691,14.669c-5.136,1.628-5.312,1.977-0.966,4.858c14.194,9.405,27.897,19.296,41.529,29.279
	c8.288,6.047,17.101,11.551,24.65,18.337c4.856,4.356,7.288,9.195,4.574,15.271c-1.366,3.077-2.435,6.257-3.541,9.424
	c-0.49,1.433-2.293,2.957-0.823,4.36c1.193,1.128,3.154,0.21,4.768-0.019c20.937-3.042,41.857-6.103,62.815-9.09
	c8.81-1.266,12.195,0.588,14.75,7.992c2.84,8.186,3.208,16.674,4.05,25.104c0.191,1.84-1.575,5.397,1.944,5.127
	c2.752-0.196,1.154-3.603,0.893-5.609c-1.104-7.976-2.803-15.924-3.363-23.93c-0.527-7.538,3.519-10.07,12.178-8.85
	c21.43,3.033,42.912,5.912,64.304,9.137c4.889,0.726,4.101-0.754,2.963-3.42c-1.665-3.906-3.035-7.903-4.539-11.868
	c-1.91-5.035-0.404-9.405,3.769-13.089c3.73-3.285,7.499-6.601,11.618-9.514c18.622-13.131,36.407-27.139,55.473-39.82
	C328.434,193.271,328.295,193.014,323.212,191.414z"/>
</svg>
