<?xml version="1.0" encoding="utf-8"?>
<!-- Generator: Adobe Illustrator 17.0.0, SVG Export Plug-In . SVG Version: 6.00 Build 0)  -->
<!DOCTYPE svg PUBLIC "-//W3C//DTD SVG 1.1//EN" "http://www.w3.org/Graphics/SVG/1.1/DTD/svg11.dtd">
<svg version="1.1" id="Layer_1" xmlns="http://www.w3.org/2000/svg" xmlns:xlink="http://www.w3.org/1999/xlink" x="0px" y="0px"
	 width="352px" height="321px" viewBox="0 0 352 321" enable-background="new 0 0 352 321" xml:space="preserve">
<g>
	<path fill="#147EC2" d="M133.819,35.598c10.48,0,18.528-0.813,18.528-0.813s-8.048-4.023-23.354-3.216
		c-15.296,0.798-22.181-12.577-22.181-12.577C106.379,41.852,123.352,35.598,133.819,35.598z"/>
	<path fill="#147EC2" d="M318.935,101.298c0.091-0.058,0.149-0.095,0.149-0.095s-12.637-43.36-17.165-52.405
		c-4.503-9.031-29.805-8.122-46.069-7.221c-16.258,0.898-22.585,14.442-18.958,23.485c3.608,9.022,14.449,18.972,11.745,21.679
		c-2.732,2.689-19.875,4.508-29.808,0.903c-9.948-3.61-10.847-36.12-14.461-47.878c-3.614-11.749,8.124-12.643,15.362-7.239
		c0-16.245-6.325-24.38-17.162-20.748c-5.423-7.241-19.891-10.847-27.11-10.847c-7.214,0-21.684,5.421-38.849,7.215
		c-17.165,1.814-14.335,20.573-11.735,19.869c17.165-4.506,31.63-7.227,35.209,4.512c3.637,11.757-21.659,11.757-21.659,11.757
		s1.812,8.134,10.844,9.935c9.031,1.799,9.923,6.314,1.809,21.676c-8.152,15.372-16.258,15.353-29.812,13.559
		c-13.557-1.81-10.825-11.763,2.704-29.817c13.564-18.062-27.999-18.062-54.193-18.062c-26.204,0-16.245,9.947-16.245,9.947
		s-7.241,14.435-11.761,46.961c0.114,0.108,0.242,0.216,0.359,0.325l-30.426,77.738c-0.348,0.756-3.15,7.637-0.699,12.893
		c1.097,2.357,3.115,4.023,5.781,4.848c0.304,0.076,0.674,0.183,1.11,0.183c3.583,0,12.886-6.811,39.945-84.5
		c2.345,1.37,4.79,2.716,7.304,4.03l-31.957,99.091c-0.366,0.974-3.399,9.422-0.559,14.662c1.075,1.981,2.859,3.311,5.117,3.807
		c0.642,0.158,1.271,0.225,1.859,0.225c6.844,0,10.822-8.839,12.052-14.172l34.5-93.862c2.679,1.111,5.322,2.165,7.888,3.148
		L57.195,228.68c-0.208,1.172-2.131,11.525,2.113,16.702c1.571,1.943,3.817,2.974,6.467,2.974c10.834,0,15.492-12.714,15.704-13.288
		l34.871-100.779c0.452,0.115,0.894,0.225,1.307,0.322c2.336,0.551,4.506,1.078,6.54,1.58l-19.658,59.01
		c-0.307,0.656-2.935,6.621-0.392,11.422c0.955,1.799,3.029,4.11,7.431,4.832c0.841,0.163,1.641,0.223,2.388,0.223
		c8.238,0,12.159-7.718,13.057-11.962l16.713-55.112c3.372,8.188,9.73,28.994-0.812,51.442
		c-13.535,28.897-42.435,44.262-42.435,44.262s-3.624,1.794,2.707,1.794c6.325,0,9.933,2.721,9.933,2.721
		s-9.933,12.648-11.745,15.347c-1.793,2.721-9.939-1.801-17.153-7.216c-7.229-5.422-6.328,2.707-11.745,4.517
		c-5.43,1.8-6.325,7.225-3.612,10.85c2.71,3.597,9.933-0.917,21.672-0.917c11.732,0-4.516,9.025-10.844,10.836
		c-6.321,1.821-9.006,9.038-14.442,16.25c-5.414,7.251,12.643,4.523,20.77-1.801c8.143-6.314,6.318-12.627,12.658-14.449
		c6.322-1.81-2.719,17.169-2.719,19.882c0,2.685,7.226,9.029,11.739,5.423c4.523-3.628,4.523-5.423,1.812-13.558
		c-2.707-8.124,0-9.025,0.92-13.557c0.892-4.511,6.309,3.633,9.914,11.756c3.614,8.126,8.143-0.908,8.143-0.908l-4.528-14.458
		c0,0-11.739-3.594-11.739-7.234c0-3.605,13.537-16.245,18.958-9.925c13.573-39.741,29.824-34.321,28.894-27.097
		c6.35,37.022-15.321,67.747-15.321,67.747s0,0,7.22-0.903c7.21-0.919,14.452-9.034,18.066,9.027
		c3.621,18.076,9.041,19.882,11.739,8.134c2.697-11.738,8.127-25.291,23.474-17.161c-21.668-31.617-19.857-70.465-10.838-76.785
		c9.035-6.324,26.206,35.221,26.206,35.221s2.719,5.427,9.939-2.699c7.226-8.136,9.025,16.259,9.025,16.259s0,0-9.025,0
		c-9.038,0-9.939,7.242-9.939,7.242s0.901,18.043,5.417,11.729c4.522-6.314,8.136,3.612,8.136,3.612s0.892-9.925,8.136-11.747
		c7.214-1.81-0.901,19.882-0.901,19.882s8.114,7.206,14.433,2.71c6.325-4.521-2.691-18.969,0-24.402
		c2.723-5.414,16.264,19.882,16.264,19.882s14.449-1.821,12.637-7.242c-1.783-5.423-20.745-10.829-20.745-10.829
		s-1.831-8.124,4.493-10.836c6.328-2.709,10.831,4.514,18.98-6.322c1.957-2.6-17.155-4.532-24.391-1.812
		c-7.239,2.71-6.337,3.621-14.452-5.427c-8.152-9.021-6.318-14.447,5.423-16.25c-34.33-21.675-46.078-61.433-44.273-80.399
		c0.577-6.044,1.801-10.709,4.189-14.382l17.651,57.527l0.648,1.137c0.825,0.928,7.337,7.838,13.82,7.838
		c1.081,0,2.188-0.204,3.254-0.656c2.593-1.112,7.954-3.422-15.035-76.924c2.104-0.46,4.383-0.883,6.848-1.278l33.558,106.916
		c-0.117,1.284,0,3.545,1.711,5.427c1.473,1.581,3.688,2.388,6.584,2.388c1.021,0,2.122-0.097,3.304-0.29
		c9.892-1.642,10.762-14.527,9.585-22.399l-31.52-96.133c2.723-0.748,5.447-1.599,8.149-2.525l29.856,93.358
		c0.092,0.72,1.154,7.141,5.799,10.216c1.565,1.02,3.336,1.516,5.259,1.516c1.018,0,2.068-0.131,3.153-0.423
		c3.229-0.879,5.626-2.851,6.945-5.669c3.32-7.117-1.277-17.445-1.654-18.204l-27.303-89.971c0.949-0.457,1.878-0.913,2.789-1.366
		l23.048,70.77l0.458,0.854c0.313,0.422,6.724,8.848,14.497,8.848c1.082,0,2.195-0.164,3.334-0.541
		c0.727-0.239,1.752-0.835,2.429-2.195C345.605,182.087,325.29,120.179,318.935,101.298z M17.863,188.305
		c-0.885-0.406-1.24-0.934-1.452-1.39c-1.129-2.391,0.212-6.696,0.803-8.089l29.763-75.984c1.749,1.319,3.644,2.629,5.647,3.926
		C39.54,144.309,23.457,183.815,17.863,188.305z M45.953,215.882c-0.806,3.387-3.662,10.632-6.913,9.865
		c-0.68-0.16-0.956-0.435-1.174-0.835c-1.119-2.039-0.123-6.9,0.965-9.827l31.717-98.352c3.329,1.627,6.72,3.192,10.101,4.673
		L45.953,215.882z M75.843,233.08c-0.032,0.081-3.444,9.312-10.069,9.312c-1.087,0-1.533-0.394-1.859-0.779
		c-1.764-2.157-1.581-8.185-0.99-11.331l36.718-101.297c4.005,1.445,7.719,2.687,10.956,3.677L75.843,233.08z M121.235,198.239
		c-0.072,0.343-1.976,8.437-8.668,7.338c-2.416-0.403-2.953-1.395-3.128-1.738c-0.99-1.858,0.067-5.145,0.642-6.445l19.911-59.742
		c3.866,0.995,6.858,1.809,8.902,2.379L121.235,198.239z M246.094,203.352c-2.511-0.117-6.502-2.9-8.953-5.411l-18.344-59.724
		l-0.93,0.284c2.667-2.173,6.141-3.872,10.642-5.26C237.98,163.578,246.661,196.431,246.094,203.352z M290.113,223.865
		c0.029,0.128,1.698,14.063-4.785,15.157c-2.868,0.454-4.171,0.061-4.516-0.288c-0.202-0.217-0.167-0.776-0.155-0.893l0.221-0.816
		l-33.726-107.43c1.065-0.138,2.151-0.274,3.276-0.407c2.669-0.313,5.394-0.791,8.142-1.388L290.113,223.865z M316.331,206.759
		c1.032,2.277,3.618,9.667,1.79,13.573c-0.554,1.221-1.55,1.994-3.093,2.416c-1.929,0.533-2.951,0.055-3.536-0.31
		c-2.075-1.369-3.008-4.87-3.318-6.568l-30.031-94.065c3.769-1.444,7.447-2.994,10.959-4.579L316.331,206.759z M335.927,187.761
		c-4.143,0.465-8.807-4.649-10-6.045l-23.171-71.145l-0.118,0.038c4.47-2.348,8.256-4.492,11.067-6.141
		C325.838,140.626,337.083,180.396,335.927,187.761z"/>
</g>
</svg>
