<?xml version="1.0" encoding="utf-8"?>
<!-- Generator: Adobe Illustrator 17.0.0, SVG Export Plug-In . SVG Version: 6.00 Build 0)  -->
<!DOCTYPE svg PUBLIC "-//W3C//DTD SVG 1.1//EN" "http://www.w3.org/Graphics/SVG/1.1/DTD/svg11.dtd">
<svg version="1.1" id="Layer_1" xmlns="http://www.w3.org/2000/svg" xmlns:xlink="http://www.w3.org/1999/xlink" x="0px" y="0px"
	 width="352px" height="321px" viewBox="0 0 352 321" enable-background="new 0 0 352 321" xml:space="preserve">
<g>
	<path fill="#147EC2" d="M350.5,142.895H1c0.207,25.652,40.586,47.798,99.029,58.236v102.41H69.279v1.696v3.032V321h0.181h4.548
		h203.768h4.729v-4.728v-8.001v-3.032v-1.696h-31.047V201.134C309.908,190.697,350.293,168.55,350.5,142.895z M250.324,308.271
		h1.133h26.318v8.001H74.008v-8.001h26.021h4.729v-4.728V201.941c21.694,3.582,45.714,5.576,70.993,5.576
		c25.273,0,49.289-1.993,70.979-5.573v101.599v4.728H250.324z M245.761,151.935h29.83v12.929h-29.83V151.935z M245.761,169.163
		h29.847v10.497h-29.847L245.761,169.163L245.761,169.163z M245.761,184.021h24.75c-8.353,2.588-16.679,4.614-24.75,6.312
		L245.761,184.021L245.761,184.021z M201.704,151.935h36.185v12.929h-36.185L201.704,151.935L201.704,151.935z M201.704,169.163
		h36.185v10.497h-36.185L201.704,169.163L201.704,169.163z M201.704,184.025h36.185v7.836c-13.339,2.416-25.981,3.724-36.185,4.37
		L201.704,184.025L201.704,184.025z M157.623,151.935h36.28v12.929h-36.28V151.935z M157.623,169.163h36.296v10.497h-36.296V169.163
		z M157.623,184.025h36.28v12.623c-9.15,0.306-15.408,0.218-17.844,0.132l-0.335-0.073l-0.38,0.073
		c-2.407,0.086-8.693,0.174-17.721-0.132V184.025z M113.541,151.935h36.185v12.929h-36.185V151.935z M113.541,169.163h36.185v10.497
		h-36.185V169.163z M113.541,184.025h36.189v12.206c-10.29-0.646-22.752-1.953-36.189-4.37V184.025z M75.716,151.935h29.834v12.929
		H75.716L75.716,151.935L75.716,151.935z M75.716,169.163h29.848v10.497H75.716L75.716,169.163L75.716,169.163z M105.557,184.025
		v6.311c-7.965-1.698-16.303-3.724-24.631-6.311H105.557z"/>
	<rect x="217.304" y="211.034" fill="#147EC2" width="22.655" height="96.632"/>
	<rect x="112.012" y="211.034" fill="#147EC2" width="23.103" height="96.632"/>
	<path fill="#147EC2" d="M142.586,306.419h68.563v-92.467h-68.563V306.419z M147.315,218.68h59.106v83.011h-59.106V218.68z"/>
</g>
</svg>
