<?xml version="1.0" encoding="utf-8"?>
<!-- Generator: Adobe Illustrator 17.0.0, SVG Export Plug-In . SVG Version: 6.00 Build 0)  -->
<!DOCTYPE svg PUBLIC "-//W3C//DTD SVG 1.1//EN" "http://www.w3.org/Graphics/SVG/1.1/DTD/svg11.dtd">
<svg version="1.1" id="Layer_1" xmlns="http://www.w3.org/2000/svg" xmlns:xlink="http://www.w3.org/1999/xlink" x="0px" y="0px"
	 width="352px" height="321px" viewBox="0 0 352 321" enable-background="new 0 0 352 321" xml:space="preserve">
<path fill="none" d="M236.244,269.431c-18.562-9.056-34.488-22.234-54.987-28.257c-3.042-0.891-5.194-1.015-7.864,0.421
	c-1.738,0.944-3.358,2.159-5.918,1.766c-10.015-1.544-19.688-1.043-28.836,3.773c-26.398,13.908-53.603,26.426-81.719,37.293
	c-8.506,3.292-16.975,6.648-25.706,10.064c4.722,4.059,4.87,4.291-0.219,7.102c-2.795,1.544-1.174,2.541-0.119,3.666
	c1.346,1.428,3.073,0.625,4.674,0.314c12.863-2.58,25.725-5.166,38.607-7.701c1.117-0.221,2.432-1.23,3.498,0.189
	c-0.819,2.043-3.617,2.167-4.882,4.576c2.303-0.812,4.178-1.311,5.877-2.106c4.012-1.891,7.677-2.827,10.847,1.339
	c1.69,2.213,3.37,0.936,4.882-0.509c4.673-4.515,9.335-9.038,14.117-13.456c1.421-1.311,2.409-3.326,5.186-3.344
	c0.642,3.434-0.802,6.583-1.206,9.822c-0.188,1.472-1.205,3.292,0.079,4.301c1.511,1.168,3.022-0.537,4.437-1.152
	c4.662-2.069,8.9-4.924,14.127-6.165c-5.711,6.469-12.537,11.983-17.456,19.029c9.918-6.305,19.838-12.614,29.766-18.913
	c-3.202,6.005-7.182,11.17-11.026,16.427c-0.86,1.176-2.429,2.532-1.383,4.041c0.899,1.302,2.786,0.74,4.21,0.571
	c17.801-2.125,35.15-5.701,51.165-13.365c3.98-1.9,7.646-4.352,11.714-6.039c7.391-3.061,12.981-1.722,18.367,3.693
	c2.982,3.008,7.232,5.986,11.132,5.193c10.603-2.159,20.461-0.377,30.775,2.524c-0.584-2.478-2.963-3.603-2.707-6.566
	c13.701,3.988,27.218,7.914,41.807,12.15c-3.486-3.282-7.854-3.799-10.49-7.501c16.656,2.077,32.166,6.119,48.959,7.012
	c-1.283-0.509-1.865-0.794-2.488-0.973C299.5,298.711,267.601,284.722,236.244,269.431z M276.822,296.72l2.592,4.896l-31.964-11.231
	l2.304,8.351c-16.414-4.032-26.781-0.576-26.781-0.576c-14.975-20.446-28.978-8.148-28.978-8.148
	c-30.13,18.345-56.549,18.227-56.549,18.227l12.959-24.477l-7.775,4.607l-17.278,12.095l11.519-12.383h-5.76l-9.503,4.032
	c-7.199,6.047-6.623,2.592-6.623,2.592l1.44-7.775c2.016-10.943-5.471-4.896-5.471-4.896l-18.718,17.854
	c-5.471-8.063-11.807-2.304-11.807-2.304c3.168-4.032-4.032-2.88-4.032-2.88l-40.891,7.487l3.744-3.456l-2.165-2.849
	c4.458,0.318,102.091-44.666,102.091-44.666c14.974-8.351,22.462-6.047,22.462-6.047c7.487,4.032,15.55-0.864,15.55-0.864
	c7.487-0.576,37.436,17.854,37.436,17.854c29.949,17.854,91.672,40.959,91.672,40.959L276.822,296.72z"/>
<path fill="#147EC2" d="M177.184,244.309c0,0-8.063,4.896-15.55,0.864c0,0-7.487-2.304-22.462,6.047
	c0,0-97.632,44.984-102.091,44.666l2.165,2.849l-3.744,3.456l40.892-7.487c0,0,7.199-1.152,4.032,2.88c0,0,6.335-5.76,11.807,2.304
	l18.718-17.854c0,0,7.487-6.047,5.471,4.896l-1.44,7.775c0,0-0.576,3.456,6.623-2.592l9.503-4.032h5.76l-11.519,12.383
	l17.278-12.095l7.775-4.607l-12.959,24.477c0,0,26.42,0.119,56.549-18.227c0,0,14.003-12.298,28.978,8.148
	c0,0,10.367-3.456,26.781,0.576l-2.304-8.351l31.964,11.231l-2.592-4.896l29.471,6.403c0,0-61.724-23.105-91.672-40.959
	C214.62,262.164,184.671,243.734,177.184,244.309z M54.221,292.112l96.17-42.584c0,0,9.141-4.782,16.533,0L54.221,292.112z
	 M263.863,289.808c0,0-13.765-4.418-39.88-17.965l-50.041-22.542c0-5.975,10.223,0,10.223,0
	c15.426,9.399,28.734,16.792,39.818,22.542L263.863,289.808z"/>
<path fill="none" d="M64.754,276.398c1.324,0.785,2.804-0.526,4.129-1.08c24.391-10.223,48.289-21.322,71.465-33.653
	c2.807-1.49,5.799-1.954,8.922-2.586c9.039-1.82,18.85,1.534,27.394-3.383c0.366-0.213,1.127-0.266,1.452-0.071
	c5.601,3.435,12.871,2.731,18.495,6.227c28.401,17.647,58.266,32.977,89.621,45.938c6.788,2.802,6.788,2.813,6.7-5.932
	c-0.269-2.471-0.495-6.701-1.218-10.848c-9.57-55.531-66.318-94.181-127.873-87.16c-51.569,5.873-91.905,41.988-99.106,88.774
	C64.535,273.882,63.252,275.496,64.754,276.398z M132.334,236.205c22.564-9.047,32.582-4.969,32.582-4.969
	c2.51,5.424,9.029,2.997,9.029,2.997c-5.017,3.007-9.029,0.616-9.029,0.616c-16.034-2.818-29.963,4.971-29.963,4.971
	c-18.93,10.401-67.792,30.672-67.792,30.672L132.334,236.205z"/>
<path fill="#147EC2" d="M351.416,310.051c-1.711-0.58-3.39-1.275-5.138-1.73c-13.771-3.623-27.137-8.29-40.622-12.679
	c-6.233-2.024-9.544-4.709-8.418-10.983c0.365-2.007-0.366-4.175-0.583-6.271c-4.189-40.041-26.466-69.127-65.648-87.899
	c-11.902-5.701-24.884-8.43-38.014-10.652c-9.689,0-19.382,0-29.073,0c-1.137,0.215-2.263,0.491-3.408,0.651
	c-28.442,4.033-52.339,15.677-71.416,35.116c-16.38,16.704-26.091,36.205-28.836,58.412c-0.475,3.855-2.203,6.175-6.362,7.628
	c-9.335,3.248-18.486,6.907-27.693,10.457c-1.314,0.501-3.339,0.625-3.467,2.168c-0.119,1.266,1.661,1.758,2.788,2.311
	c2.923,1.445,2.201,2.454-0.297,3.533c-8.259,3.586-16.498,7.226-24.748,10.839v2.713c1.691,1.41,3.508,0.543,5.198,0.116
	c4.168-1.071,8.259-2.419,12.446-3.4c3.124-0.732,6.194-2.934,9.643,0c0.838,0.714,3.498-0.169,5.286-0.501
	c8.604-1.552,17.191-3.174,27.098-5.013c-7.666,4.792-14.255,8.914-20.836,13.034c0.219,0.359,0.435,0.715,0.654,1.071
	c3.34-1.178,6.697-2.32,10.006-3.55c9.861-3.677,19.759-7.289,29.53-11.144c3.377-1.329,5.977-1.464,8.168,1.542
	c2.579,3.525,4.882,2.847,7.795-0.026c3.794-3.747,8.141-7.048,12.615-10.858c-0.463,2.507-1.077,4.898-1.265,7.315
	c-0.109,1.447-1.737,3.598,1.987,3.988c1.975,0.206,0.295,1.563-0.269,2.213c-1.875,2.105-3.881,4.123-5.787,6.209
	c-1.414,1.535-2.6,3.177-1.996,5.336h5.008c7.204-4.559,14.415-9.11,21.794-13.775c0.11,0.706,0.278,1.017,0.169,1.223
	c-1.214,2.569-3.933,5.192-1.69,7.939c2.035,2.499,5.689,1.464,8.506,1.116c21.29-2.676,42.074-6.78,60.441-17.721
	c8.09-4.816,12.29-4.22,19.49,2.053c0.366,0.305,0.751,0.616,1.186,0.822c11.677,5.494,23.352,10.975,35.032,16.461
	c0.354-0.365,0.71-0.741,1.067-1.105c-4.428-3.767-8.862-7.532-14.117-11.983c7.34-0.134,13.307,0.98,19.095,3.363
	c3.31,1.365,7.548,4.979,8.29-2.301c0.206-1.982,2.459-0.715,3.705-0.356c10.512,2.996,20.993,6.065,31.493,9.099
	c1.264,0.366,2.561,0.714,3.855,0.964c2.053,0.401,4.326,1.704,6.134-0.063c2.125-2.087-1.521-3.247-1.493-5.709
	c14.236,2.444,28.394,4.075,42.699,4.55L351.416,310.051L351.416,310.051z M64.735,272.624
	c7.201-46.787,47.537-82.901,99.106-88.774c61.555-7.021,118.303,31.629,127.873,87.16c0.723,4.147,0.949,8.377,1.218,10.848
	c0.088,8.745,0.088,8.733-6.7,5.932c-31.355-12.962-61.22-28.291-89.621-45.938c-5.623-3.496-12.893-2.792-18.495-6.227
	c-0.326-0.195-1.086-0.142-1.452,0.071c-8.544,4.917-18.355,1.563-27.394,3.383c-3.123,0.632-6.115,1.096-8.922,2.586
	c-23.177,12.331-47.074,23.43-71.465,33.653c-1.324,0.553-2.804,1.865-4.129,1.08C63.252,275.496,64.535,273.882,64.735,272.624z
	 M286.995,302.612c2.636,3.702,7.004,4.219,10.49,7.501c-14.59-4.237-28.106-8.163-41.807-12.151
	c-0.257,2.963,2.122,4.087,2.707,6.566c-10.315-2.9-20.173-4.683-30.775-2.524c-3.9,0.793-8.15-2.185-11.132-5.193
	c-5.386-5.416-10.975-6.755-18.367-3.693c-4.069,1.687-7.734,4.14-11.714,6.039c-16.014,7.665-33.364,11.241-51.165,13.366
	c-1.424,0.169-3.311,0.732-4.21-0.571c-1.045-1.51,0.524-2.865,1.383-4.041c3.843-5.257,7.824-10.421,11.026-16.427
	c-9.928,6.3-19.848,12.608-29.766,18.913c4.92-7.046,11.746-12.56,17.456-19.029c-5.227,1.241-9.464,4.096-14.127,6.165
	c-1.415,0.616-2.926,2.32-4.437,1.152c-1.284-1.009-0.267-2.829-0.079-4.301c0.404-3.239,1.847-6.388,1.206-9.822
	c-2.777,0.017-3.765,2.032-5.186,3.344c-4.782,4.418-9.445,8.94-14.117,13.456c-1.511,1.445-3.192,2.721-4.882,0.509
	c-3.171-4.166-6.836-3.23-10.847-1.339c-1.699,0.794-3.574,1.294-5.877,2.106c1.264-2.408,4.063-2.533,4.882-4.576
	c-1.067-1.419-2.381-0.41-3.498-0.19c-12.881,2.536-25.743,5.122-38.606,7.702c-1.601,0.311-3.329,1.114-4.674-0.314
	c-1.055-1.125-2.676-2.122,0.119-3.666c5.089-2.812,4.941-3.044,0.219-7.102c8.732-3.416,17.2-6.772,25.706-10.064
	c28.116-10.867,55.321-23.385,81.719-37.293c9.147-4.816,18.821-5.317,28.836-3.773c2.56,0.393,4.18-0.822,5.918-1.766
	c2.669-1.436,4.822-1.311,7.864-0.421c20.499,6.023,36.425,19.201,54.987,28.257c31.357,15.291,63.256,29.28,97.221,39.22
	c0.622,0.178,1.205,0.464,2.488,0.973C319.16,308.73,303.65,304.689,286.995,302.612z"/>
<path fill="#147EC2" d="M164.916,234.848c0,0,4.012,2.391,9.029-0.616c0,0-6.519,2.427-9.029-2.997c0,0-10.018-4.078-32.582,4.969
	l-65.173,34.286c0,0,48.862-20.271,67.792-30.672C134.953,239.819,148.882,232.03,164.916,234.848z"/>
</svg>
