<?xml version="1.0" encoding="utf-8"?>
<!-- Generator: Adobe Illustrator 17.0.0, SVG Export Plug-In . SVG Version: 6.00 Build 0)  -->
<!DOCTYPE svg PUBLIC "-//W3C//DTD SVG 1.1//EN" "http://www.w3.org/Graphics/SVG/1.1/DTD/svg11.dtd">
<svg version="1.1" id="Layer_1" xmlns="http://www.w3.org/2000/svg" xmlns:xlink="http://www.w3.org/1999/xlink" x="0px" y="0px"
	 width="352px" height="321px" viewBox="0 0 352 321" enable-background="new 0 0 352 321" xml:space="preserve">
<g>
	<path fill="#157EC1" d="M165.813,134h20.457c0,0,1.968-11.212-10.425-43.668C175.844,90.333,165.813,117.084,165.813,134z"/>
	<path fill="#157EC1" d="M138.417,218.352c25.252,0,50.335,0,75.515,0c0-2.436,0-4.783,0-7.155c-25.234,0-50.255,0-75.515,0
		C138.417,213.67,138.417,215.979,138.417,218.352z"/>
	<path fill="#157EC1" d="M163.507,159.477c8.41,0.058,16.82,0.057,25.231,0.006c0.655-0.004,1.715-0.369,1.892-0.778
		c1.444-3.321,2.722-6.692,4.117-10.218c-12.436,0-24.541,0-37.102,0c1.402,3.551,2.652,6.857,4.06,10.114
		C161.891,159.032,162.883,159.473,163.507,159.477z"/>
	<path fill="#157EC1" d="M187.004,171.4c-7.231-0.087-14.463-0.062-21.694-0.034c-0.621,0.003-1.471,0.092-1.822,0.42
		c-1.658,1.553-3.181,3.203-4.874,4.944c1.471,1.282,2.867,2.59,4.392,3.789c0.675,0.531,1.6,1.19,2.424,1.2
		c7.145,0.094,14.292,0.061,21.438,0.042c0.652-0.002,1.569,0.017,1.909-0.299c1.711-1.595,3.272-3.299,4.893-4.973
		c-1.452-1.3-2.891-2.667-4.443-3.942C188.615,172.043,187.76,171.409,187.004,171.4z"/>
	<rect x="40.121" y="302.768" fill="#157EC1" width="272.233" height="5.508"/>
	<polygon fill="#157EC1" points="77.495,269.33 77.495,287.622 84.969,287.622 84.969,269.33 77.495,265.985 	"/>
	<polygon fill="#157EC1" points="267.114,287.622 274.785,287.622 274.785,269.33 274.785,265.985 267.114,269.33 	"/>
	<polygon fill="#157EC1" points="31.071,265.742 28.016,275.319 35.558,275.319 	"/>
	<polygon fill="#157EC1" points="251.384,228.025 248.269,237.601 255.959,237.601 	"/>
	<polygon fill="#157EC1" points="289.249,228.123 286.134,237.7 293.823,237.7 	"/>
	<path fill="#157EC1" d="M319.934,265.889l-3.081,9.471c-0.04,0-0.076,0-0.116,0c0,5.165,0,10.071,0,15.05
		c-5.215,0-10.032,0-15.136,0c0-1.165-0.001-2.159,0-3.153c0.003-9.027-0.003-18.053,0.012-27.079
		c0.012-6.956-0.068-7.054-6.925-7.663c-0.177-0.015-0.338-0.199-0.784-0.477c0-4.654,0-9.48,0-14.326c-2.636,0-4.988,0-7.687,0
		c0,5.086,0,9.903,0,14.19c-10.217,2.506-19.985,4.901-30.282,7.426c0-7.604,0-14.631,0-21.701c-2.709,0-4.993,0-7.68,0
		c0,4.035,0,7.888,0,12.423c-7.592-8.542-14.69-16.462-21.669-24.486c-0.689-0.793-0.89-2.217-0.906-3.354
		c-0.087-5.982-0.006-11.967-0.057-17.951c-0.028-3.381-1.427-5.31-4.43-4.78c-7.015,1.237-10.693-1.863-12.54-8.205
		c-0.307-1.051-1.077-1.959-1.467-2.995c-1.027-2.725-2.739-4.454-6.153-4.541c1.243-1.572,2.74-2.758,4.057-4.12
		c1.973-2.045,1.932-4.019-0.032-6.121c-1.315-1.407-2.611-2.866-4.109-4.058c-1.999-1.592-2.157-3.312-1.343-5.612
		c2.261-6.393,4.381-12.837,6.471-19.289c1.229-3.796-0.307-5.84-4.31-5.989c-0.877-0.033-1.752-0.117-2.719-0.185
		c-0.071-0.896-0.138-1.591-0.179-2.286c-1.023-17.308-4.089-34.174-10.732-50.287c-0.443-1.077-0.536-2.361-0.538-3.55
		c-0.038-13.895-0.026-27.789-0.031-41.683c-0.002-7.466-0.005-7.466-7.412-8.725c0-7.395,0-14.826,0-22.257l0,0
		c0-0.05,0-0.099,0-0.149c-0.025,0-0.05,0-0.074,0L175.451,0l-3.155,9.428c0,0-0.034,0-0.05,0c0,7.481,0,14.962,0,22.5
		c-0.572,0.106-0.952,0.218-1.338,0.241c-5.612,0.34-6.056,0.793-6.057,6.278c-0.003,14.5,0.025,29.001-0.043,43.501
		c-0.007,1.569-0.315,3.232-0.895,4.687c-4.302,10.782-7.189,21.932-8.728,33.42c-0.817,6.091-1.343,12.221-2.007,18.388
		c-0.627,0.042-1.124,0.094-1.623,0.107c-5.292,0.142-6.565,1.878-4.95,6.829c1.443,4.426,2.512,9.034,4.484,13.213
		c2.795,5.926,2.331,10.466-3.23,14.534c-3.022,2.212-2.743,4.364,0.057,7.102c1.141,1.115,2.558,1.947,3.847,2.908
		c-0.189,0.305-0.376,0.611-0.565,0.917c-3.394-0.25-5.027,1.707-6.12,4.449c-0.523,1.312-1.465,2.48-1.853,3.818
		c-1.684,5.811-5.237,8.071-11.363,7.146c-3.702-0.559-5.089,1.214-5.108,5.033c-0.029,5.881,0.102,11.766-0.076,17.642
		c-0.045,1.46-0.669,3.189-1.615,4.287c-5.891,6.834-11.95,13.524-17.954,20.26c-0.835,0.937-1.686,1.86-3.084,3.403
		c0-4.678,0-8.48,0-12.422c-0.011,0-0.021,0-0.032,0l-4.559-9.544l-3.114,9.577h0.025c0,7.156,0,14.103,0,21.591
		c-10.275-2.512-20.122-4.919-30.39-7.428c0-4.478,0-9.289,0-14.253c-0.016,0-0.031,0-0.047,0l-4.445-9.487l-3.026,9.487h-0.004
		c0,0.005,0,0.009,0,0.014l-0.025,0.076h0.025c0,2.509,0,4.89,0,7.269c0,2.487,0,4.973,0,7.463c-0.851,0.108-1.244,0.187-1.64,0.203
		c-5.406,0.217-6,0.832-6.002,6.311c-0.005,9.431,0.005,18.861-0.01,28.292c-0.002,1.061-0.112,2.123-0.17,3.124
		c-5.163,0-9.964,0-15.053,0c0-5.046,0-9.874,0-15.003c-2.705,0-5.12,0-7.534,0c0,15.213,0,30.427,0,45.64
		c98.786,0,197.572,0,296.359,0c0-15.178,0-30.356,0-45.535h0.128L319.934,265.889z M286.579,260.405c2.345,0,4.623,0,7.147,0
		c0,9.852,0,19.799,0,29.965c-2.285,0-4.634,0-7.147,0C286.579,280.383,286.579,270.509,286.579,260.405z M263.79,265.297
		c4.858-1.239,9.719-2.478,14.791-3.772c0,9.693,0,19.221,0,28.907c-4.924,0-9.741,0-14.791,0
		C263.79,282.119,263.79,273.796,263.79,265.297z M248.418,269.804c0.005-0.509,0.634-1.343,1.108-1.458
		c2.016-0.485,4.084-0.755,6.362-1.143c0,8.107,0,15.547,0,23.185c-2.489,0-4.842,0-7.521,0
		C248.368,283.469,248.344,276.636,248.418,269.804z M240.67,270.008c0,6.981,0,13.62,0,20.418c-4.978,0-9.789,0-15,0
		c0-5.683-0.05-11.309,0.079-16.93c0.012-0.545,1.059-1.423,1.729-1.537C231.748,271.23,236.046,270.671,240.67,270.008z
		 M202.569,274.564c0,5.425,0,10.537,0,15.94c-5.033,0-9.779,0-14.775,0c0-4.955,0-9.853,0-15.227
		C192.619,275.045,197.495,274.81,202.569,274.564z M164.645,275.25c0,5.129,0,10.034,0,15.253c-5.006,0-9.749,0-14.746,0
		c0-5.244,0-10.423,0-15.919C154.824,274.807,159.637,275.025,164.645,275.25z M126.593,272.22c0,6.186,0,12.112,0,18.204
		c-4.973,0-9.789,0-14.824,0c0-6.777,0-13.489,0-20.424C116.804,270.753,121.66,271.48,126.593,272.22z M134.668,273.24
		c2.287,0.172,4.543,0.343,7.031,0.531c0,5.603,0,11.01,0,16.72c-2.407,0-4.609,0-7.031,0
		C134.668,284.796,134.668,279.184,134.668,273.24z M172.577,275.533c2.543,0,4.831,0,7.293,0c0,4.949,0,9.748,0,14.801
		c-2.348,0-4.7,0-7.293,0C172.577,285.523,172.577,280.647,172.577,275.533z M210.686,273.848c2.259-0.208,4.543-0.418,7.143-0.657
		c0,5.909,0,11.45,0,17.193c-2.353,0-4.627,0-7.143,0C210.686,284.98,210.686,279.569,210.686,273.848z M162.106,124.838
		c1.62-12.799,4.552-25.272,9.623-37.195c0.529-1.244,0.602-2.751,0.606-4.137c0.039-13.373,0.018-26.747,0.014-40.12
		c0-1.084,0-2.168,0-3.399c2.644,0,4.944,0,7.723,0c0,1.188,0,2.358,0,3.529c0,13.374-0.041,26.747,0.05,40.12
		c0.012,1.755,0.44,3.607,1.098,5.244c6.107,15.184,9.251,30.98,9.99,47.289c0.031,0.678-0.054,1.363-0.091,2.211
		c-9.966,0-19.745,0-30.092,0C161.378,133.807,161.542,129.297,162.106,124.838z M197.42,146.395
		c-1.597,4.816-3.059,9.42-4.709,13.955c-0.203,0.558-1.417,1.057-2.166,1.063c-9.622,0.07-19.246,0.072-28.867-0.008
		c-0.713-0.006-1.848-0.607-2.062-1.196c-1.611-4.449-3.041-8.964-4.645-13.815C169.342,146.395,183.193,146.395,197.42,146.395z
		 M197.072,176.456c-1.932,2.441-3.792,4.926-5.831,7.253c-0.404,0.462-1.498,0.433-2.275,0.436
		c-8.517,0.028-17.034,0.076-25.549-0.061c-0.981-0.016-2.084-0.976-2.889-1.751c-1.817-1.749-3.481-3.656-5.234-5.525
		c2.018-2.538,3.833-4.945,5.809-7.209c0.418-0.48,1.431-0.609,2.172-0.613c8.618-0.041,17.237-0.076,25.853,0.05
		c0.9,0.013,1.919,0.937,2.649,1.671C193.626,172.567,195.343,174.56,197.072,176.456z M151.557,192.807
		c0.349-0.567,1.497-0.901,2.279-0.904c14.875-0.048,29.749-0.067,44.624,0.053c0.993,0.008,2.278,0.963,2.898,1.848
		c1.072,1.531,1.731,3.354,2.734,5.402c-18.829,0-37.099,0-55.806,0C149.451,196.866,150.364,194.75,151.557,192.807z
		 M134.634,207.172c27.791,0,55.318,0,83.081,0c0,4.941,0,9.828,0,14.902c-27.702,0-55.298,0-83.081,0
		C134.634,217.13,134.634,212.322,134.634,207.172z M96.584,267.217c2.219,0.382,4.297,0.633,6.304,1.161
		c0.503,0.132,1.092,1.148,1.098,1.765c0.079,6.651,0.05,13.303,0.05,20.31c-2.646,0-4.937,0-7.451,0
		C96.584,282.797,96.584,275.19,96.584,267.217z M73.825,261.52c4.945,1.26,9.812,2.5,14.834,3.78c0,8.306,0,16.556,0,25.158
		c-5.025,0-9.835,0-14.834,0C73.825,280.802,73.825,271.252,73.825,261.52z M58.638,260.289c2.449,0,4.647,0,7.089,0
		c0,10.048,0,19.989,0,30.115c-2.316,0-4.596,0-7.089,0C58.638,280.456,58.638,270.506,58.638,260.289z M316.504,313.121
		c-93.479,0-186.98,0-280.688,0c0-4.875,0-9.688,0-14.702c93.561,0,186.991,0,280.688,0
		C316.504,303.25,316.504,308.048,316.504,313.121z"/>
</g>
</svg>
