<?xml version="1.0" encoding="utf-8"?>
<!-- Generator: Adobe Illustrator 17.0.0, SVG Export Plug-In . SVG Version: 6.00 Build 0)  -->
<!DOCTYPE svg PUBLIC "-//W3C//DTD SVG 1.1//EN" "http://www.w3.org/Graphics/SVG/1.1/DTD/svg11.dtd">
<svg version="1.1" id="Layer_1" xmlns="http://www.w3.org/2000/svg" xmlns:xlink="http://www.w3.org/1999/xlink" x="0px" y="0px"
	 width="352px" height="321px" viewBox="0 0 352 321" enable-background="new 0 0 352 321" xml:space="preserve">
<path fill="none" d="M136.734,301.72c-0.055,4.512-0.037,9.046-0.017,13.558h19.086c0.018-4.512,0.035-9.046-0.019-13.558
	C149.438,301.736,143.079,301.72,136.734,301.72z"/>
<path fill="none" d="M219.514,290.776c0.04-22.95,0.023-45.913,0-68.861c-14.029-12.246-27.682-24.83-41.748-37.023
	c-13.632,12.517-27.321,24.999-40.842,37.652c0.019,22.745-0.04,45.486,0.037,68.249C164.474,290.76,191.987,290.76,219.514,290.776
	z"/>
<path fill="none" d="M136.924,211.894c5.604-4.636,10.792-9.626,16.207-14.451c5.699-4.888,11.265-9.898,16.682-15.048
	c-10.965-0.103-21.907,0-32.853-0.065C136.884,192.193,136.944,202.045,136.924,211.894z"/>
<path fill="none" d="M219.514,182.345c-11.265,0.049-22.529-0.053-33.777,0.049c11.08,9.697,22.529,19.035,33.759,28.575
	C219.555,201.43,219.537,191.885,219.514,182.345z"/>
<path fill="none" d="M200.865,315.278h19.086c0.018-4.512,0-9.025,0.018-13.542c-6.358-0.033-12.74,0-19.104-0.016
	C200.848,306.232,200.848,310.765,200.865,315.278z"/>
<path fill="none" d="M167.696,301.72c-0.023,4.512-0.023,9.046-0.023,13.558H189.2c0-4.528,0.058-9.062-0.037-13.576
	C181.989,301.772,174.852,301.72,167.696,301.72z"/>
<g>
	<path fill="#147EC2" d="M276.816,134.057c0.037-8.4,0-16.793,0.019-25.175c-1.41-0.018-2.795-0.018-4.203-0.018
		c0.017-7.468,0-14.921,0.017-22.388c-1.483-0.018-2.964-0.018-4.429-0.034c0.017-7.387-0.018-14.789,0.017-22.154
		c-1.404-0.034-2.794-0.05-4.204-0.068c0-5.72,0-11.437,0-17.172c-1.041,0-2.071-0.016-3.096-0.034c0-3.247,0-6.494,0.017-9.753
		c-1.157,0-2.319,0-3.499,0c-0.017-2.475-0.037-4.949-0.073-7.419c-0.65-0.017-1.94-0.034-2.59-0.055
		c-0.035-1.75-0.055-3.502-0.133-5.233c-1.252-1.273-2.926-2.562-2.735-4.45c-0.137-6.423,0.037-12.86-0.023-19.301h-2.434
		c-0.072,6.44,0.115,12.878-0.035,19.317c0.174,1.855-1.387,3.194-2.736,4.379c-0.077,1.77-0.096,3.537-0.137,5.309
		c-0.644,0-1.958,0.016-2.602,0.034c0,2.453-0.019,4.928-0.019,7.381h-3.516v9.808c-0.76,0-2.301,0-3.061,0
		c-0.06,5.734-0.023,11.468-0.041,17.205c-1.387,0-2.778,0-4.18,0.016c0,7.399,0,14.786,0,22.204c-1.464,0-2.946,0-4.414,0
		c0,7.47,0,14.938,0,22.406c-1.465,0-2.946,0-4.411,0.018v25.398c-1.405,0-2.795,0-4.18,0.016
		c-0.023,10.063,0.017,20.142-0.023,30.221c-27.642-0.016-55.287-0.016-82.935,0c-0.018-10.148,0-20.278,0-30.428
		c-1.481,0-2.946,0-4.412-0.016v-25.19c-1.405-0.018-2.796-0.018-4.2-0.018c0.017-7.468,0-14.936,0-22.406
		c-1.464,0-2.946,0-4.414-0.016c0-7.403,0.023-14.789,0-22.204c-1.403,0-2.772,0-4.18,0c-0.017-5.755,0.055-11.505-0.059-17.276
		c-0.76,0.034-2.28,0.071-3.043,0.087v-9.824c-1.157,0-2.337,0-3.518,0c0-2.453,0-4.928,0-7.381
		c-0.662-0.017-1.957-0.034-2.602-0.034c-0.061-1.772-0.078-3.557-0.151-5.325c-1.332-1.203-2.91-2.524-2.74-4.412
		c-0.131-6.423,0.039-12.842-0.016-19.267h-2.434c-0.06,6.44,0.113,12.878-0.019,19.317c0.23,1.888-1.481,3.144-2.739,4.396
		c-0.073,1.752-0.115,3.52-0.152,5.27c-0.645,0.021-1.938,0.037-2.585,0.055c-0.021,2.453-0.021,4.912-0.041,7.381
		c-1.174,0.018-2.355,0.037-3.535,0.055c0.019,3.242,0.019,6.488,0.041,9.735c-1.047,0.017-2.076,0.034-3.1,0.034
		c0,5.734,0,11.472-0.019,17.19c-1.391,0-2.776,0-4.162-0.018c-0.041,7.417-0.023,14.801,0,22.222
		c-1.486,0.016-2.969,0.016-4.432,0.034c0.017,7.468,0,14.92,0,22.388c-1.386,0-2.796,0-4.186,0.018c0,8.398-0.017,16.775,0,25.175
		c-1.463,0.016-2.946,0.032-4.427,0.069c0.017,62.279,0.017,124.578,0.017,186.874h205.176V134.126
		C279.761,134.09,278.281,134.073,276.816,134.057z M86.663,117.673h41.567v6.705H86.663V117.673z M132.668,301.748H81.124v-8.314
		h51.544V301.748z M132.668,279.734H81.124v-3.118h51.544V279.734z M105.337,248.305v-51.544h3.117v51.544H105.337z
		 M132.668,168.624H81.124v-3.118h51.544V168.624z M132.668,151.806H81.124v-8.314h51.544V151.806z M220.114,182.91
		c0.023,9.58,0.041,19.164-0.017,28.744c-11.277-9.58-22.774-18.957-33.9-28.694C197.49,182.857,208.803,182.96,220.114,182.91z
		 M137.216,182.894c10.991,0.066,21.979-0.037,32.99,0.066c-5.44,5.172-11.029,10.203-16.752,15.111
		c-5.438,4.845-10.647,9.856-16.275,14.511C137.198,202.693,137.138,192.799,137.216,182.894z M137.179,223.278
		c13.578-12.706,27.323-25.241,41.012-37.81c14.125,12.244,27.835,24.88,41.923,37.177c0.023,23.044,0.041,46.104,0,69.149
		c-27.642-0.016-55.27-0.016-82.898,0.018C137.138,268.954,137.198,246.118,137.179,223.278z M156.136,316.399H136.97
		c-0.019-4.531-0.037-9.084,0.017-13.615c6.372,0,12.758,0.016,19.129,0C156.172,307.315,156.154,311.867,156.136,316.399z
		 M189.673,316.399h-21.618c0-4.531,0-9.084,0.023-13.615c7.186,0,14.353,0.053,21.557-0.018
		C189.732,307.299,189.673,311.852,189.673,316.399z M220.553,316.399h-19.166c-0.017-4.531-0.017-9.084,0-13.615
		c6.391,0.016,12.8-0.018,19.184,0.016C220.553,307.336,220.571,311.867,220.553,316.399z M230.88,117.673h41.568v6.705H230.88
		L230.88,117.673L230.88,117.673z M276.885,301.748h-51.544v-8.314h51.544V301.748z M276.885,279.734h-51.544v-3.118h51.544V279.734
		z M249.554,248.305v-51.544h3.118v51.544H249.554z M276.885,168.624h-51.544v-3.118h51.544V168.624z M276.885,151.806h-51.544
		v-8.314h51.544V151.806z"/>
</g>
</svg>
