<?xml version="1.0" encoding="utf-8"?>
<!-- Generator: Adobe Illustrator 17.0.0, SVG Export Plug-In . SVG Version: 6.00 Build 0)  -->
<!DOCTYPE svg PUBLIC "-//W3C//DTD SVG 1.1//EN" "http://www.w3.org/Graphics/SVG/1.1/DTD/svg11.dtd">
<svg version="1.1" id="Layer_1" xmlns="http://www.w3.org/2000/svg" xmlns:xlink="http://www.w3.org/1999/xlink" x="0px" y="0px"
	 width="352px" height="321px" viewBox="0 0 352 321" enable-background="new 0 0 352 321" xml:space="preserve">
<g>
	<path fill="#147EC2" d="M93.026,316.037c16.082-0.135,32.164-0.073,48.246-0.224c22.68-0.213,45.364-0.327,68.046,0.119
		c7.429,0.146,14.863,0.023,22.294,0.023c0,0.028,0,0.057,0,0.085c7.432,0,14.863,0,22.295,0c0.391,0,0.783,0.016,1.173-0.007
		c0.936-0.057,1.071-0.234,0.677-1.059c-0.716-1.5-1.559-2.943-2.206-4.471c-0.594-1.404-1.467-2.017-3.035-1.921
		c-1.742,0.106-1.769,0.003-2.147-1.669c-0.831-3.671-1.652-7.344-2.448-11.023c-0.284-1.314-0.476-2.623-2.105-3.017
		c-0.369-0.089-0.479-0.649-0.04-0.767c1.112-0.298,0.837-0.948,0.607-1.688c-1.089-3.501-2.156-7.008-3.232-10.513
		c-0.201-0.657-0.395-1.273-1.138-1.597c-0.616-0.269-0.814-0.897-0.469-1.479c0.372-0.628,0.264-1.21,0.107-1.832
		c-0.774-3.082-1.552-6.163-2.311-9.249c-0.17-0.689-0.385-1.295-1.095-1.628c-0.513-0.241-0.736-0.657-0.363-1.192
		c0.287-0.411,0.219-0.826,0.099-1.261c-0.782-2.827-1.558-5.655-2.342-8.481c-0.159-0.575-0.374-1.106-0.999-1.359
		c-0.705-0.284-0.874-0.814-0.395-1.389c0.484-0.581,0.397-1.159,0.232-1.79c-0.571-2.175-1.135-4.352-1.702-6.528
		c-0.086-0.331-0.128-0.811-0.419-0.903c-1.098-0.348-1.688-1.51-3.013-1.585c-1.635-0.093-2.359-1.084-2.417-2.742
		c-0.015-0.44-0.003-0.88-0.025-1.32c-0.06-1.222-0.084-1.334-1.302-1.541c-1.775-0.301-2.703-1.448-3.262-3.007
		c-0.197-0.548-0.307-1.132-0.407-1.709c-0.749-4.349-0.968-8.736-0.932-13.142c0.006-0.771,0.242-1.389,0.705-2.015
		c0.868-1.172,0.532-2.519,0.303-3.806c-0.076-0.431-0.56-0.499-0.949-0.568c-0.405-0.071-0.787-0.194-0.874-0.653
		c-0.155-0.824-0.799-1.03-1.465-1.249c-0.458-0.151-1.08-0.19-1.265-0.656c-0.422-1.06-1.219-2.067-0.772-3.325
		c0.237-0.668,0.07-1.127-0.56-1.452c-0.624-0.322-0.664-0.904-0.638-1.517c0.026-0.608,0.277-1.136,0.541-1.66
		c0.712-1.414,1.083-2.934,1.373-4.472c0.319-1.688,0.081-3.216-1.415-4.332c-0.311-0.232-0.612-0.503-0.844-0.812
		c-0.893-1.187-1.925-1.607-3.261-0.704c-0.119,0.08-0.267,0.124-0.408,0.161c-0.839,0.218-1.174-0.006-1.246-0.901
		c-0.055-0.681,0-1.372-0.067-2.051c-0.121-1.221-0.243-2.487-1.292-3.319c-0.634-0.503-0.622-1.018-0.371-1.67
		c0.406-1.055,0.68-2.153,0.737-3.279c0.04-0.788,0.359-1.366,0.864-1.945c1.783-2.043,1.521-3.767-0.744-5.231
		c-0.246-0.159-0.498-0.313-0.76-0.441c-1.65-0.807-2.645-0.526-3.544,1.065c-0.528,0.935-0.977,1.916-1.455,2.879
		c-0.197,0.397-0.364,0.827-0.884,0.885c-2.107,0.234-3.623,1.62-5.287,2.713c-0.735,0.483-1.419,1.042-2.149,1.533
		c-0.587,0.395-0.832,0.315-0.903-0.306c-0.139-1.213-0.229-2.431-0.324-3.648c-0.048-0.614,0.023-1.164,0.739-1.416
		c0.604-0.212,0.61-0.715,0.42-1.215c-0.138-0.362-0.317-0.72-0.541-1.035c-0.566-0.8-0.578-1.642-0.236-2.509
		c0.251-0.636,0.58-1.241,0.823-1.879c0.349-0.916,0.095-1.265-0.894-1.288c-0.243-0.006-0.487,0.036-0.73,0.061
		c-1.217,0.13-1.315,0.091-1.331-1.052c-0.033-2.394-0.139-4.784-0.258-7.176c-0.176-3.512-0.137-7.032-0.261-10.549
		c-0.239-6.786-0.33-13.577-0.625-20.362c-0.157-3.611-0.129-7.228-0.258-10.843c-0.237-6.688-0.322-13.381-0.618-20.069
		c-0.168-3.806-0.021-7.619-0.283-11.43c-0.235-3.409-0.049-6.835-0.292-10.255c-0.224-3.164-0.175-6.347-0.269-9.521
		c-0.211-7.13-0.315-14.262-0.63-21.389c-0.143-3.221-0.064-6.445-0.257-9.671c-0.239-3.996-0.102-8.008-0.313-12.015
		c-0.192-3.656-0.094-7.327-0.316-10.988c-0.052-0.86-0.317-1.454-1.036-1.951c-3.496-2.421-6.994-4.839-10.338-7.471
		c-1.154-0.908-1.212-0.895-2.401-0.008c-3.408,2.543-6.826,5.072-10.343,7.464c-0.75,0.51-1.145,1.131-1.154,2.059
		c-0.065,6.889-0.295,13.774-0.575,20.657c-0.141,3.465-0.124,6.935-0.246,10.404c-0.236,6.737-0.335,13.479-0.626,20.216
		c-0.158,3.66-0.125,7.325-0.256,10.99c-0.241,6.737-0.331,13.479-0.622,20.216c-0.158,3.66-0.134,7.325-0.26,10.99
		c-0.228,6.639-0.328,13.284-0.615,19.923c-0.167,3.855-0.022,7.718-0.285,11.577c-0.229,3.36-0.181,6.739-0.263,10.107
		c-0.123,5.031-0.43,10.059-0.399,15.094c0.025,4.008-0.41,8.005-0.309,12.016c0.006,0.243,0,0.495-0.059,0.728
		c-0.058,0.23-0.129,0.548-0.298,0.644c-1.083,0.614-1.291,1.78-1.84,2.738c-0.327,0.57-0.428,1.067-0.097,1.641
		c0.31,0.538,0.324,1.128,0.191,1.71c-0.141,0.618-0.639,0.742-1.08,0.288c-0.356-0.365-0.468-0.846-0.59-1.322
		c-0.133-0.518-0.19-1.095-0.642-1.448c-1.494-1.168-2.872-2.531-4.839-2.929c-0.378-0.076-0.746-0.239-1.096-0.407
		c-0.488-0.234-0.8-0.663-0.644-1.189c0.353-1.186-0.188-1.963-1.027-2.671c-0.217-0.183-0.363-0.456-0.527-0.697
		c-0.761-1.121-1.922-1.486-3.172-0.994c-0.483,0.19-0.906,0.484-0.923,1.029c-0.025,0.796-0.451,1.349-0.888,1.952
		c-0.599,0.827-0.387,1.533,0.535,2.044c0.295,0.163,0.694,0.198,0.837,0.543c0.333,0.807,0.932,1.348,1.633,1.825
		c0.459,0.313,0.434,0.727,0.073,1.124c-0.23,0.253-0.468,0.499-0.709,0.742c-1.024,1.037-1.764,2.215-1.868,3.716
		c-0.047,0.678-0.36,1.201-0.916,1.594c-0.322,0.228-0.698,0.505-0.473,0.953c0.371,0.738-0.029,1.199-0.474,1.679
		c-0.312,0.337-0.468,0.741-0.454,1.204c0.07,2.249-1.255,3.203-3.059,3.352c-0.146,0.012-0.295,0.022-0.435,0.061
		c-2.202,0.611-2.73,1.438-2.721,3.195c0.008,1.585,0.435,3.088,0.558,4.63c0.14,1.758,0.17,3.501,0.828,5.177
		c0.47,1.196-0.474,2.142-0.736,3.207c-0.137,0.557-0.87,0.561-1.372,0.708c-0.642,0.188-1.195,0.412-1.351,1.162
		c-0.107,0.514-0.541,0.654-0.992,0.732c-0.7,0.122-0.974,0.566-0.989,1.241c-0.014,0.635-0.046,1.27-0.089,1.904
		c-0.028,0.418,0.084,0.785,0.38,1.068c0.777,0.742,0.903,1.669,0.89,2.687c-0.044,3.521-0.354,7.025-0.674,10.526
		c-0.137,1.502-0.386,3.011-1.012,4.415c-0.453,1.016-1.085,1.834-2.227,2.172c-2.16,0.639-2.155,0.655-2.212,2.867
		c-0.008,0.293-0.016,0.587-0.021,0.88c-0.018,1.025-0.604,1.74-1.513,1.921c-1.166,0.233-2.151,0.694-3.139,1.332
		c-0.54,0.349-0.911,0.672-1.064,1.275c-0.553,2.179-1.111,4.357-1.67,6.535c-0.162,0.631-0.198,1.186,0.249,1.789
		c0.526,0.709,0.447,1.013-0.314,1.371c-0.712,0.335-0.99,0.862-1.177,1.555c-0.715,2.642-1.462,5.276-2.185,7.916
		c-0.166,0.607-0.383,1.214,0.004,1.841c0.248,0.401,0.136,0.789-0.305,0.967c-0.858,0.345-1.034,1.096-1.226,1.867
		c-0.742,2.989-1.494,5.976-2.243,8.964c-0.177,0.708-0.368,1.373,0.057,2.116c0.315,0.551,0.167,1.161-0.566,1.409
		c-0.535,0.181-0.715,0.633-0.861,1.107c-1.151,3.737-2.294,7.477-3.453,11.212c-0.211,0.679-0.107,1.071,0.66,1.312
		c0.557,0.175,0.537,0.744-0.045,0.892c-1.4,0.355-1.761,1.405-1.998,2.604c-0.104,0.527-0.229,1.051-0.347,1.576
		c-0.745,3.34-1.481,6.681-2.238,10.018c-0.322,1.419-0.363,1.434-1.873,1.475c-0.391,0.011-0.782,0.027-1.173,0.015
		c-0.771-0.023-1.275,0.307-1.613,1.016c-0.653,1.366-1.369,2.704-2.05,4.057C90.341,316.045,90.343,316.059,93.026,316.037z
		 M179.576,24.081l0.74-2.278l0.74,2.278h2.395l-1.938,1.408l0.74,2.278l-1.938-1.408l-1.938,1.408l0.74-2.278l-1.938-1.408H179.576
		z M172.848,16.741l0.74-2.278l0.74,2.278h2.395l-1.938,1.408l0.74,2.278l-1.938-1.408l-1.938,1.408l0.74-2.278l-1.938-1.408
		H172.848z M166.731,24.081l0.74-2.278l0.74,2.278h2.395l-1.938,1.408l0.74,2.278l-1.938-1.408l-1.938,1.408l0.74-2.278
		l-1.938-1.408H166.731z"/>
	<path fill="#147EC2" d="M265.542,318.373c-0.486-0.038-0.977-0.02-1.466-0.02c-59.78,0-119.56,0-179.34,0
		c-0.44,0-0.881-0.015-1.32,0.012c-1.159,0.07-1.43,0.344-1.417,1.387c0.012,0.977,0.237,1.189,1.369,1.237
		c0.488,0.021,0.977,0.007,1.466,0.007c29.865,0,59.731,0,89.597,0c29.816,0,59.633,0,89.45,0c0.538,0,1.077,0.018,1.612-0.014
		c1.012-0.061,1.305-0.383,1.29-1.354C266.773,318.734,266.505,318.448,265.542,318.373z"/>
</g>
</svg>
