<?xml version="1.0" encoding="utf-8"?>
<!-- Generator: Adobe Illustrator 17.0.0, SVG Export Plug-In . SVG Version: 6.00 Build 0)  -->
<!DOCTYPE svg PUBLIC "-//W3C//DTD SVG 1.1//EN" "http://www.w3.org/Graphics/SVG/1.1/DTD/svg11.dtd">
<svg version="1.1" id="Layer_1" xmlns="http://www.w3.org/2000/svg" xmlns:xlink="http://www.w3.org/1999/xlink" x="0px" y="0px"
	 width="352px" height="321px" viewBox="0 0 352 321" enable-background="new 0 0 352 321" xml:space="preserve">
<polygon fill="#147EC2" points="288.009,125.114 275.355,125.114 275.352,124.957 78.093,124.957 78.09,125.114 65.433,125.114 
	65.433,133.169 34.983,133.169 34.983,148.78 70.878,148.78 70.878,133.169 77.397,133.169 77.397,148.78 77.62,148.78 
	74.127,319.999 101.631,319.999 98.156,148.78 97.853,133.169 103.826,133.169 103.826,148.78 248.543,148.78 248.543,133.169 
	255.06,133.169 255.06,148.78 255.286,148.78 252.339,293.068 251.792,319.999 279.296,319.999 275.821,148.78 275.518,133.169 
	281.489,133.169 281.489,148.78 318.458,148.78 318.458,133.169 288.009,133.169 "/>
<path fill="#147EC2" d="M274.946,101.243l-0.141-7.063h-18.528h-79.569H97.145H78.638l-0.545,26.037h197.258L274.946,101.243z
	 M268.021,111.733H84.856v-9.277h183.165L268.021,111.733L268.021,111.733z"/>
<path fill="#147EC2" d="M259.693,53.647h-83.856H92.003C24.461,53.647,1,33.43,1,33.43c0.61,2.714,1.989,5.062,3.719,7.23
	c1.949,6.805,7.999,11.722,15.984,15.261c23.34,10.327,62.807,9.008,62.807,9.008h92.328h92.345c0,0,39.472,1.319,62.792-9.008
	c7.999-3.539,14.035-8.456,15.984-15.261c1.745-2.167,3.128-4.515,3.74-7.23C350.698,33.43,327.236,53.647,259.693,53.647z"/>
<path fill="#147EC2" d="M175.838,70.622H83.51c-43.551,0-63.193-8.792-67.517-11.065c8.978,34.452,35.812,29.907,35.812,29.907
	h25.94h18.525h79.569h79.569h18.527h26.809c0,0,26.044,4.545,34.942-29.907c-4.305,2.256-23.932,11.065-67.502,11.065
	C268.183,70.622,175.838,70.622,175.838,70.622z"/>
</svg>
