<?xml version="1.0" encoding="utf-8"?>
<!-- Generator: Adobe Illustrator 17.0.0, SVG Export Plug-In . SVG Version: 6.00 Build 0)  -->
<!DOCTYPE svg PUBLIC "-//W3C//DTD SVG 1.1//EN" "http://www.w3.org/Graphics/SVG/1.1/DTD/svg11.dtd">
<svg version="1.1" id="Layer_1" xmlns="http://www.w3.org/2000/svg" xmlns:xlink="http://www.w3.org/1999/xlink" x="0px" y="0px"
	 width="352px" height="321px" viewBox="0 0 352 321" enable-background="new 0 0 352 321" xml:space="preserve">
<g>
	<g id="XMLID_4188_">
		<path fill="#147EC2" d="M128.272,59.967c-0.025-0.101-0.064-0.215-0.089-0.317c-0.992,0.152-1.971,0.294-3.025,0.457
			C125.717,61.353,127.096,61.166,128.272,59.967 M154.315,89.441c0.1,0.035,0.191,0.067,0.279,0.101
			c0.328-1.919,2.747-2.783,2.7-4.982c-1.274,1.367-2.637,2.576-4.798,2.384c0.69,0.109,1.37,0.22,2.11,0.339
			C154.499,88.067,154.411,88.75,154.315,89.441 M184.666,90.845c-0.087,0.113-0.19,0.216-0.289,0.329
			c0.251,0.193,0.505,0.532,0.758,0.541c3.427,0.13,6.845,0.215,10.262,0.313c0-0.058,0-0.115,0.012-0.17
			C191.828,91.524,188.244,91.179,184.666,90.845 M123.845,18.5c1.735-0.009,3.169-0.266,3.188-0.572c0,0,0,0-0.001-0.249
			c0.005-1.271-1.116-2.128-2.52-1.88c-0.251,0.034-0.627,0.288-0.651,0.456C123.802,17.013,123.842,17.785,123.845,18.5
			L123.845,18.5z M125.078,59.236c1.029-0.278,2.046-0.545,2.999-0.809c0.045-0.568,0.082-1.111,0.105-1.43
			c-0.706-0.234-1.498-0.308-1.937-0.705c-0.52-0.45-0.945-0.448-1.322-0.129c-0.337,0.296-0.66,0.821-0.607,1.195
			C124.419,58.004,124.813,58.623,125.078,59.236 M120.898,44.453c1.002-0.083,1.92-0.19,2.852-0.205
			c0.863-0.015,1.731,0.014,2.586,0.124c0.879,0.107,1.328-0.248,1.69-1.032c-0.427-0.156-0.794-0.381-1.196-0.436
			c-1.334-0.162-2.676-0.314-4.021-0.364C121.039,42.47,120.764,42.787,120.898,44.453 M169.312,81.642
			c-2.079-1.223-2.091-1.237-4.651-0.703c-2.221,0.467-4.455,0.931-5.285,2.955C162.575,83.173,165.961,82.398,169.312,81.642
			 M173.238,108.9c0.164,0.012,0.327,0.023,0.491,0.033c0.83-2.624,0.337-5.696,3.153-7.615c-1.429-1.649-3.733-0.028-5.184-1.461
			c-0.135,2.475,0.375,4.355,1.64,6.47c0.115,0.178,0.065,0.441,0.055,0.668C173.344,107.63,173.287,108.267,173.238,108.9
			 M142.016,88.222c0.173,2.084,2.623,2.449,3.434,3.997c0.039,0.078,0.365,0.088,0.552,0.065c2.461-0.307,4.921-0.625,7.356-0.932
			c0.096-0.726,0.168-1.318,0.252-1.988C149.706,88.975,145.885,88.61,142.016,88.222 M128.508,6.477
			c-0.007-1.397-0.058-2.637-0.113-2.756c0,0,0,0-0.052-0.101c-1.258,1.696-2.698,2.623-4.892,1.1
			c1.289,1.65,0.204,2.869-0.493,4.145c-0.126,0.238-0.2,0.501-0.362,0.886c0.64-0.22,1.067-0.437,1.506-0.507
			c1.269-0.176,2.623-0.581,3.806-0.346c1.306,0.264,1.881-0.077,2.342-0.988c0.461-0.955,0.882-1.92,1.228-2.694
			c0.694,0.314,1.324,0.604,2.09,0.964c0.285-1.134,0.507-1.998,0.764-3.033c-0.737,0.528-1.327,0.926-1.99,1.396
			c-0.328-0.635-0.621-1.201-0.912-1.767c-0.138-0.02-0.278-0.031-0.426-0.041c-0.159,0.623-0.447,1.238-0.483,1.871
			C130.465,5.845,129.828,6.505,128.508,6.477L128.508,6.477z M127.348,35.711c-1.937-0.806-3.77-0.548-5.615-0.155
			c-1.744,0.361-1.907,0.588-1.497,2.119c1.117-0.052,2.258-0.294,3.301-0.109c1.334,0.233,2.401,0.25,3.185-1.195
			c0.572,1.37,1.032,2.457,1.438,3.431c-2.377-0.25-4.526-0.512-6.687-0.66c-0.275-0.02-0.813,0.469-0.825,0.741
			c-0.01,0.399,0.22,1.066,0.523,1.165c1.117,0.371,2.323,0.602,3.25-0.117c0.617,0.177,1.248,0.572,1.623,0.422
			c0.714-0.287,1.093,0.017,1.596,0.287c0.781,0.428,1.445,0.31,1.569-0.575c0.085-0.578,0.006-1.215-0.199-1.757
			c-0.558-1.585-1.205-3.137,0.379-4.572c0,0-0.012-0.068-0.037-0.147C128.256,34.199,127.821,34.916,127.348,35.711
			 M130.313,53.573c-0.141-0.341-0.18-1.031-0.548-1.234c-1.157-0.63-1.288-1.502-1.166-2.559c0.085-0.633,0.105-1.291,0.078-1.938
			c-0.014-0.33-0.118-0.725-0.332-0.986c-0.581-0.7-2.67-0.917-3.81-0.513c-1.266,0.449-1.123,1.365-0.944,2.262
			c0.413,2.153,0.538,4.262-0.534,6.309c-0.036,0.079,0.014,0.193,0.014,0.193c1.681-0.213,3.327-0.404,4.958-0.614
			c0.25-0.036,0.476-0.173,0.714-0.276C129.173,54.042,129.599,53.859,130.313,53.573 M137.864,24.09
			c-0.466-0.371-0.654-0.54-0.87-0.686c-5.633-3.931-11.865-4.478-18.513-2.642c-2.019,0.565-3.354,2.454-3.13,4.53
			C122.679,24.018,130.101,23.924,137.864,24.09 M168.205,89.474c4.876,2.937,10.189,3.407,12.487,2.977
			c-0.518-0.895-1.039-1.775-1.558-2.68c-1.67,0.143-1.001-1.299-1.256-2.307c-0.31,0.58-0.509,0.943-0.683,1.272
			c-0.919-0.053-1.131-0.425-1.024-1.152c0.085-0.611-0.043-1.258-0.084-1.882c-0.112,0-0.239,0.001-0.363,0.002
			c-0.175,0.783-0.358,1.569-0.556,2.442c-0.602-0.212-1.104-0.392-1.447-0.503c-0.141-0.919-0.247-1.701-0.363-2.471
			c-0.099,0.011-0.199,0.034-0.314,0.045c-0.084,0.705-0.084,0.705-0.084,0.705c-0.099,0.761-1.079,1.389-2.178,1.394l0,0
			c-0.11-1.336-0.204-2.607-0.298-3.878c-0.162,0.015-0.162,0.015-0.162,0.015c-0.186,0.007-0.329,1.768-0.319,3.914l0,0
			c-0.867,0.059-1.519,0.108-2.212,0.159c-0.155-1.476-0.289-2.834-0.422-4.195c-0.124,0.012-0.25,0.013-0.374,0.024
			c-0.585,1.353,0.19,2.812-0.13,4.208c-0.653,0.108-1.269,0.201-1.857,0.282c-0.436-1.348-0.117-2.802-1.34-3.849
			c0.197,1.325,0.379,2.661,0.585,4.022c-0.703,0.208-1.252,0.369-1.804,0.533c-0.512-1.304-0.117-2.781-1.388-3.715
			c0.105,1.041,0.261,2.064,0.553,3.048c0.243,0.861-0.07,1.26-0.997,1.367c-0.765-2.038-0.765-2.038-1.454-2.16
			c0.648,1.607,0.792,3.104-1.034,4.033c-0.368-0.451-0.733-0.881-1.1-1.324c-0.087,0.058-0.187,0.105-0.274,0.163
			c0.202,0.679,0.408,1.371,0.676,2.287c-0.555-0.214-0.844-0.323-1.159-0.448c-0.196,0.638,1.077,1.469-0.317,1.759
			c0.165,2.769-1.064,5.269-1.568,7.937c0.428-0.307,0.701-0.707,1.001-1.082c0.761-0.956,0.767-2.386,2.258-2.871
			c-0.316-0.484-0.593-0.913-0.898-1.378C160.808,94.241,165.449,93.23,168.205,89.474 M159.912,105.972
			c0.141,0.421,0.343,0.84,0.459,1.292c0.472,1.891,1.496,3.201,3.919,3.178c0.542-0.003,1.083,0.257,1.636,0.264
			c1.695,0.049,3.403,0.063,5.098-0.014c0.314-0.013,0.84-0.493,0.851-0.764c0.01-0.41-0.22-1.033-0.571-1.212
			c-0.618-0.315-1.396-0.38-2.099-0.535c-0.53-0.11-1.071-0.21-1.9-0.375c0.452-0.228,0.539-0.298,0.638-0.319
			c0.589-0.107,1.169-0.19,1.746-0.282c0.063-0.079,0.123-0.159,0.186-0.227c-0.491-0.282-0.983-0.767-1.472-0.765
			c-0.565,0.003-1.128,0.448-1.692,0.701c-0.052-0.068-0.1-0.135-0.152-0.215c0.75-0.448,1.504-0.905,2.317-1.398
			c-0.264-0.167-0.503-0.292-0.694-0.449c-0.364-0.303-0.693-0.632-1.035-0.947c0.453-0.048,0.918-0.152,1.368-0.122
			c0.97,0.089,1.945-0.552,1.93-1.313c-0.035-1.642-0.106-3.288-0.063-4.934c0.01-0.352,0.372-0.907,0.698-1.013
			c1.43-0.427,2.91-0.715,4.364-1.064c-1.889-1.226-3.904-2.521-5.883-3.804c-0.511,0.523-0.898,0.992-1.362,1.369
			c-0.512,0.398-1.087,0.72-1.666,1.05c-1.063,0.62-2.202,1.158-3.218,1.855c-0.649,0.446-1.112,1.105-1.663,1.662
			c0.076,0.104,0.165,0.204,0.24,0.308c0.78-0.129,1.57-0.248,2.385-0.364c-0.153-0.362-0.229-0.556-0.343-0.838
			c0.525-0.003,0.928,0.006,1.317-0.007c2.362-0.022,2.487,0.102,2.06,2.192c-0.233,1.122-0.772,1.376-1.918,0.869
			c-0.668-0.292-1.323-0.548-1.908,0.17c-0.111,0.137-0.4,0.182-0.614,0.218c-1.807,0.201-2.757,0.999-2.975,2.657
			c-0.108,0.805-0.016,1.634-0.013,2.338c-0.714,0.343-1.341,0.64-1.968,0.927c0.064,0.147,0.141,0.284,0.205,0.419
			C158.696,106.32,159.26,106.159,159.912,105.972 M142.692,191.26c-2.783,9.043-5.436,18.096-5.213,27.599
			c0.26-0.386,0.397-0.818,0.534-1.239c3.026-10.075,6.015-20.161,10.136-29.926c2.111-5.011,4.434-9.92,7.981-14.294
			c0.535-0.649,1.021-1.366,1.358-2.119c3.006-6.728,6.212-13.379,10.414-19.594c0.063-0.08,0.047-0.216,0.097-0.476
			c-0.864,0.547-1.603,0.993-2.292,1.474c-3.38,2.284-6.115,5.147-8.776,8.063c-0.436,0.477-1.011,0.911-1.626,1.198
			c-2.655,1.295-5.059,2.874-7.096,4.878c-4.949,4.879-7.418,10.791-8.405,17.181c-0.851,5.483-2.169,10.787-4.479,15.912
			c-0.606,1.354-1.053,2.797-1.336,4.228c-0.404,2.054-0.266,4.094,1.1,6.131C137.666,203.821,140.185,197.535,142.692,191.26
			 M223.781,172.675c0.655,0.496,1.273,1.061,2.005,1.489c0.288,0.167,0.816,0.074,1.217-0.006c0.112-0.023,0.273-0.479,0.185-0.626
			c-0.899-1.595-1.835-3.178-2.774-4.773c0.491,0.292,0.994,0.62,1.524,0.912c0.542,0.292,1.096,0.584,1.662,0.83
			c0.794,0.315,1.57,0.502,2.308-0.191c0.788-0.741-0.28-1.066-0.47-1.632c2.089,0.694,2.402,0.603,3.02-0.877
			c-1.158-0.889-2.345-1.791-3.379-2.578c0.234-0.921,0.433-1.715,0.616-2.453c-0.024-0.025,0.115,0.112,0.279,0.203
			c1.057,0.617,2.103,1.27,3.211,1.809c0.264,0.136,0.763-0.14,1.154-0.231c-0.089-0.319-0.104-0.693-0.292-0.941
			c-0.519-0.633-1.051-1.277-1.695-1.819c-0.743-0.633-0.646-1.141-0.108-1.836c1.036-1.345,1.959-2.755,2.931-4.142
			c-0.467-0.315-0.807-0.542-1.322-0.888c0.786-0.64,1.498-1.233,2.287-1.883c-5.413-2.685-10.702-5.301-16.114-7.986
			c-0.233,1.136-0.455,2.136-0.688,3.237c-0.768-0.168-1.485-0.312-2.301-0.488c-3.511,5.939-8.422,11.191-10.358,18.131
			c0.685-0.808,1.211-1.424,1.748-2.039c-0.243,1.407-0.778,2.691-1.124,3.998c-0.418,1.67-1.075,3.387-0.966,5.039
			c0.392,5.408,1.096,10.794,1.651,16.203c0.21,2.095,0.198,2.051,2.398,2.766c0.756,0.244,1.043,0.063,1.405-0.495
			C215.779,185.146,219.779,178.911,223.781,172.675 M195.69,302.321c-1.354,0.64-2.381,1.212-3.469,1.617
			c-0.501,0.183-1.344,0.277-1.647,0.03c-0.301-0.248-0.332-1.02-0.17-1.473c0.447-1.184,1.07-2.308,1.617-3.468
			c0.161-0.331,0.383-0.649,0.433-0.99c0.638-5.321,1.28-10.645,1.866-15.966c0.362-3.214,0.234-6.422,0.043-9.644
			c-0.236-4.192,0.046-8.405,0.06-12.612c-0.002-0.385-0.293-0.767-0.444-1.155c-0.126,0.037-0.265,0.07-0.401,0.106
			c-0.129,2.121-0.269,4.242-0.398,6.319c-0.007-1.351-0.077-2.745,0.006-4.14c0.057-0.873-0.271-1.166-1.21-1.061
			c-2.493,4.346-3.623,9.036-4.669,13.669c-0.548,0.341-1.024,0.742-1.336,1.218c-0.213,0.321-0.262,0.753-0.308,1.148
			c-0.54,5.072-1.043,10.155-1.608,15.228c-0.278,2.545-0.678,5.077-1.078,7.914c-0.595-0.601-0.884-0.938-1.224-1.23
			c-0.986-0.835-1.907-1.75-3.003-2.435c-1.473-0.933-2.664-0.521-3.222,1.036c-0.271,0.771-0.343,1.612-0.529,2.417
			c-0.086,0.375-0.12,0.805-0.37,1.091c-1.713,1.971-2.767,4.178-3.045,6.673c-0.035,0.262-0.299,0.673-0.51,0.707
			c-1.621,0.281-3.251,0.48-5.108,0.729c0.765-0.559,1.328-0.972,2.089-1.541c-2.119,0.486-3.914,0.904-5.72,1.319
			c-0.052-0.078-0.115-0.157-0.179-0.237c4.589-4.345,6.409-9.571,6.27-15.126c-0.844,2.237-1.786,4.771-2.728,7.294
			c-0.14-0.043-0.263-0.077-0.402-0.123c0.372-0.965,0.794-1.909,1.103-2.896c1.955-6.057,2.211-12.317,2.772-18.535
			c0.094-1.078,0.177-2.156,0.196-3.235c-0.001-0.261-0.253-0.587-0.505-0.745c-0.112-0.067-0.576,0.15-0.738,0.343
			c-0.812,0.945-1.575,1.936-2.385,2.929c-1.183-0.461-1.693,0.256-1.828,1.062c-0.453,2.622-0.866,5.246-1.143,7.878
			c-0.48,4.54-0.858,9.112-2.392,13.476c-0.718,2.067-1.865,4.022-3.022,5.925c-0.725,1.171-1.825,1.64-2.542,1.723
			c1.208-2.116,2.692-4.3,3.747-6.641c2.644-5.833,3.218-12.052,3.776-18.246c0.038-0.317-0.229-0.656-0.343-0.998
			c-0.436,0.377-0.625,0.729-0.722,1.093c-0.865,3.022-1.629,6.065-2.605,9.053c-1.051,3.238-2.606,6.261-5.332,8.681
			c-0.264,0.239-0.575,0.445-0.875,0.662c2.343-3.187,4.628-6.285,5.299-10.349c-0.288,0.422-0.438,0.638-0.601,0.865
			c-0.087-0.032-0.175-0.067-0.263-0.099c0.581-1.559,1.19-3.092,1.735-4.662c0.642-1.839,1.274-3.692,1.842-5.553
			c0.148-0.512,0.071-1.079,0.103-1.851c-2.355,0.989-1.489,3.127-2.688,4.516c0.319-1.428,0.651-2.679,0.845-3.939
			c0.05-0.306-0.227-0.814-0.519-0.96c-1.033-0.53-1.899-0.206-2.47,0.942c-0.685,1.363-1.243,2.773-1.862,4.149
			c-0.087,0.192-0.176,0.421-0.351,0.523c-1.226,0.709-1.861,1.734-1.982,3.013c-0.177,2.157-0.241,4.313-0.52,6.459
			c-0.18,1.453-0.639,2.896-0.97,4.335c-0.164-0.032-0.327-0.054-0.491-0.088c1.125-3.724,1.22-7.526,1.352-10.703
			c-0.4,0.207-1.454,0.429-1.765,0.986c-0.71,1.273-1.28,2.547-2.482,3.552c-0.499,0.398-0.659,1.136-1.021,1.83
			c0.058-0.988,0.106-1.815,0.149-2.645c-0.124-0.043-0.239-0.099-0.364-0.146c-0.399,0.423-0.811,0.856-1.262,1.335
			c0.068-1.373,0.815-2.374,1.83-3.207c0.974-0.788,2.001-1.555,3.092-2.217c2.554-1.522,4.426-3.469,5.268-6.174
			c0.395-1.282,1.27-2.307,2.596-2.974c4.286-2.13,8.571-4.26,12.855-6.392c3.321-1.637,6.627-3.278,9.949-4.925
			c0.436-0.217,0.762-0.413,0.623-1.07c-0.35-1.643-0.658-3.331-0.693-4.999c-0.018-1.329-0.187-2.211-1.76-2.793
			c-1.572-0.582-1.664-1.749-0.401-2.833c0.801-0.672,1.737-1.269,2.716-1.716c8.797-4.093,17.276-8.638,25.515-13.579
			c0.988-0.595,1.148-1.15,0.88-2.114c-2.3-8.088-3.259-16.372-4.292-24.649c-0.708-5.609-1.362-11.221-2.356-16.785
			c-1.358-7.467-3.001-14.889-4.559-22.333c-0.526-2.47-1.166-4.927-1.757-7.396c-0.188,0.206-0.212,0.386-0.211,0.558
			c0.149,4.412-1.642,8.06-5.332,10.949c-1.216,0.948-2.402,1.905-3.566,2.896c-1.439,1.211-2.612,2.612-3.106,4.384
			c-0.137,0.5-0.209,1.021-0.319,1.554c-2.455-1.041-2.425-2.903-0.437-4.647c2.139-1.871,4.415-3.651,6.338-5.702
			c3.475-3.704,5.463-7.979,5.339-12.936c-0.019-0.747-0.234-1.326-0.952-1.72c-1.587-0.852-3.159-1.695-4.76-2.561
			c1.115-0.778,2.212-1.792,3.835-1.811c1.52-0.018,1.853,1.273,2.621,2.107c0.252,0.283,0.817,0.348,1.235,0.518
			c0.059-0.388,0.307-0.853,0.143-1.146c-0.53-0.986-1.199-1.913-1.821-2.85c0.075-0.058,0.151-0.103,0.238-0.16
			c0.569,0.769,1.325,1.468,1.694,2.306c1.256,2.965,2.378,5.977,3.562,8.964c-0.688-4.024-1.762-7.918-3.912-11.46
			c0.361-0.444,0.649-0.797,0.858-1.047c-0.941-0.243-1.772-0.454-2.968-0.768c0.951-0.799,1.576-1.335,2.417-2.054
			c-0.285-1.324-0.643-3.035-1.005-4.747c-0.643,1.875-0.972,3.795-2.485,5.297c0.94-5.38,1.49-10.747,0.309-16.184
			c1.601,3.575,3.126,7.152,4.362,10.808c2.791,8.221,4.377,16.685,6.165,25.105c0.102,0.475,0.208,1.052,0.56,1.356
			c1.222,1.061,1.77,2.352,1.575,3.794c-0.216,1.679,0.432,3.037,1.504,4.337c-0.93-10.249-4.356-20.031-7.143-29.93
			c0.137-0.037,0.263-0.059,0.402-0.092c1.743,4.913,3.502,9.827,5.246,14.741c-0.049-2.496-0.025-5.07-0.753-7.448
			c-1.941-6.275-4.204-12.468-6.335-18.707c-0.077-0.193-0.126-0.397-0.19-0.588c0.063-0.012,0.111-0.037,0.174-0.048
			c0.674,1.154,1.344,2.318,2.015,3.482c-0.54-2.958-1.223-5.869-2.104-8.722c-0.751-2.413-2.879-3.775-5.67-3.895
			c-0.516-0.022-1.043-0.052-1.556,0.008c-0.703,0.083-1.118-0.156-1.586-0.652c-0.759-0.801-1.701-1.443-2.9-2.423
			c-3.342,7.127-6.539,13.916-9.732,20.713c-0.051-0.022-0.1-0.043-0.151-0.067c2.348-5.57,4.707-11.127,7.051-16.696
			c-1.597,2.221-2.954,4.542-4.45,6.78c-2.753,4.167-5.875,8.153-8.341,12.452c-3.943,6.925-7.752,13.933-11.121,21.096
			c-3.119,6.626-5.571,13.502-8.339,20.263c-1.081,2.66-1.831,5.509-3.402,7.911c-3.514,5.417-5.96,11.121-7.099,17.263
			c-0.659,3.567-1.043,7.187-1.215,10.793c-0.159,3.403,0.148,6.816,0.213,10.232c0.019,0.793-0.116,1.588-0.187,2.484
			c0.527-0.423,0.951-0.777,1.312-1.074c-0.93,1.912-1.875,3.832-2.809,5.755c0.188,0.089,0.379,0.178,0.566,0.256
			c0.536-0.84,1.046-1.705,1.618-2.538c0.189-0.274,0.527-0.455,0.789-0.682c0.128,0.383,0.433,0.824,0.332,1.166
			c-0.146,0.5-0.597,0.923-0.884,1.398c-0.659,1.128-1.406,2.254-1.124,3.649c0.151-0.015,0.29,0.009,0.39-0.037
			c4.462-1.894,8.809-3.921,11.298-8.088c0.363-0.592,0.825-1.15,1.313-1.674c4.209-4.602,8.368-9.239,12.678-13.763
			c5.609-5.892,10.363-12.315,14.774-18.947c0.201-0.318,0.426-0.614,0.635-0.923c0.104,2.472,0.24,4.878-1.067,7.083
			c-1.4-0.741-1.953-0.683-3.152,0.526c-2.312,2.326-4.157,4.922-5.221,7.91c-0.98,2.771-1.83,5.578-2.861,8.329
			c-0.558,1.486-1.339,2.92-2.063,4.455c-1.399-1.137-1.988-1.09-2.825,0.162c-0.584,0.889-1.081,1.843-1.493,2.81
			c-1.004,2.387-1.935,4.784-2.901,7.217c-0.833-0.484-1.385-0.129-1.733,0.451c-0.646,1.114-1.32,2.217-1.789,3.401
			c-1.701,4.317-3.31,8.669-4.984,13.01c-1.354,3.524-2.766,7.025-4.093,10.559c-0.408,1.112-0.629,2.281-0.976,3.555
			c-2.638-0.601-3.662,0.766-3.992,2.808c-2.167-1.088-2.167-1.088-3.135,0.767c-0.253-0.328-0.494-0.634-0.721-0.938
			c-0.088,0.012-0.2,0.023-0.299,0.034c-0.113,2.847-0.226,5.696-0.358,8.748c3.459-1.211,5.154-3.598,6.925-5.945
			c-0.367,1.511-0.94,2.933-1.259,4.397c-0.393,1.69-2.097,2.256-3.185,3.407c0.465-0.048,0.918-0.097,1.757-0.191
			c-0.536,0.48-0.8,0.823-1.161,1.005c-0.4,0.207-0.877,0.267-1.406,0.405c0.31,1.619,0.608,3.195,0.891,4.735
			c1.672,0.229,3.205,0.447,4.352-0.873c0.962,1.414,0.766,2.084-0.7,2.432c-0.616,0.151-1.255,0.187-1.884,0.236
			c-0.502,0.034-1.006,0.015-1.508,0.018c0.008,1.656,0.055,3.13,0.011,4.605c-0.043,1.69-0.068,1.679,1.642,2.226
			c0.045,0.974-0.203,1.668-1.548,1.618c-0.501-0.018-1.042,0.118-1.505,0.302c-5.726,2.343-11.443,4.696-17.157,7.06
			c-0.289,0.126-0.689,0.391-0.713,0.606c-0.205,1.928-0.205,1.928-0.205,1.928c-0.162,2.14,1.684,3.882,4.101,3.87l77.954-0.388
			c2.417-0.012,4.385-1.999,4.373-4.417l-0.015-3.067c1.19-0.006,2.16,0.069,3.088-0.036c0.779-0.098,1.518-0.429,2.284-0.648
			c-0.393-0.666-0.75-1.346-1.167-1.991c-0.304-0.473-0.908-0.88-0.986-1.367c-1.361-8.84-2.073-17.718-2.09-26.654
			c-0.014-5.106-0.341-10.207-0.642-15.31c-0.057-1.032-0.527-2.071-0.945-3.068c-0.242-0.566-0.972-0.904-1.422-0.298
			c-0.723,0.977-1.708,2.093-1.731,3.171c-0.206,8.883-0.525,17.754-1.674,26.582c-0.267,2.089-0.619,4.167-0.935,6.256
			c-0.197-1.213-0.163-2.392-0.22-3.584c-0.028-0.669,0.056-1.496-0.325-1.993c-0.898-1.2-0.361-2.302-0.092-3.459
			c0.124-0.523,0.249-1.044,0.369-1.579c1.722-7.346,2.162-14.8,2.415-22.278c0.011-0.338-0.181-0.679-0.271-1.019
			c-0.151-0.032-0.3-0.054-0.451-0.088c-0.449,0.818-1.098,1.583-1.281,2.434c-0.26,1.227-0.166,2.506-0.271,3.768
			c-0.5,5.73-0.42,11.467-1.27,17.188c-0.812,5.516-0.975,11.107-1.437,16.657c0,0.09-0.05,0.183-0.173,0.536
			C195.931,302.762,195.791,302.512,195.69,302.321 M124.015,110.438l-0.039-0.032c-0.223,0.896-0.581,1.795-0.651,2.702
			c-0.224,3.041,0.28,5.976,1.715,8.851c1.982-0.455,3.887-0.882,5.794-1.301c-0.025-0.079-0.025-0.079-0.025-0.079
			c-0.022-0.087-1.515-0.15-3.318-0.141l0,0c0-0.058-0.014-0.115-0.025-0.16c0.778-0.343,1.555-0.677,2.418-1.054
			c-0.842-0.46-1.509-0.83-2.315-1.283c2.431-0.647,4.133-2.014,5.732-3.441c1.576-1.427,3.101-2.897,4.538-4.435
			c1.425-1.527,2.709-3.166,4.046-4.749c0.112,0.057,0.227,0.122,0.34,0.178c-2.167,3.507-4.334,6.998-6.516,10.503
			c0.115,0.057,0.227,0.112,0.341,0.177c4.601-3.842,8.474-8.138,10.14-14.035c-0.852,0.594-1.49,1.029-2.129,1.473
			c0.361-0.932,0.934-1.693,1.396-2.511c0.871-1.491,1.627-3.037,1.444-4.808c1.299,1.118,2.06,2.408,1.818,4.087
			c-0.1,0.636-0.021,1.293-0.017,1.94c-0.014,1.983,0.999,3.373,2.997,4.26c0.838-1.172,1.672-2.344,2.485-3.54
			c0.135-0.216,0.272-0.659,0.159-0.748c-0.759-0.61-0.333-1.259-0.16-1.892c0.223-0.763,0.47-1.511,0.705-2.275
			c0.11-0.396-1.338-3.316-1.74-3.484c-0.1-0.045-0.227-0.044-0.339-0.044c-2.048,0.078-4.093,0.166-6.178,0.246
			c0.115,0.592,0.219,1.044,0.309,1.486c-1.404,3-3.741,5.361-6.292,7.584c0.845-1.661,1.818-3.254,2.65-4.9
			c1.119-2.196,1.562-4.103,1.33-5.234c-1.471,2.512-3.355,4.62-6.048,6.143c-1.205-2.128-1.291-4.316-1.275-6.472
			c-4.917-0.744-7.359-2.151-7.823-4.484c0.239,0.077,0.454,0.166,0.681,0.245c1.256,0.436,2.491,0.965,3.774,1.299
			c1.47,0.357,2.12-0.283,1.723-1.564c-0.893-2.945-1.172-5.937-1.035-8.967c0.057-1.43,0.174-2.858,0.281-4.356
			c-2.135,0.215-3.546-0.776-4.372-2.291c-1.176-2.15-2.13-4.391-3.096-6.621c-0.596-1.37-1.032-2.795-1.63-4.448
			c-0.122,0.421-0.196,0.554-0.211,0.691c-0.069,3.88-0.288,7.759-0.142,11.638c0.131,3.822,1.08,7.537,2.955,11.01
			c0.204,0.362,0.192,0.839,0.246,1.259c0.351,2.64,0.642,5.282,1.057,7.911c0.143,0.918,0.119,1.702-0.478,2.52
			c-0.762,1.046-1.385,2.184-2.008,3.298c-1.578,2.914-2.858,5.925-3.483,9.126C123.699,109.94,123.912,110.191,124.015,110.438
			 M193.046,127.176c1.274,1.003,2.723,1.869,3.795,3.021c2.955,3.162,4.069,7.08,5.155,10.99c0.587,2.081,1.214,4.165,1.964,6.203
			c0.23,0.634,0.798,1.235,1.377,1.685c2.233,1.724,4.525,3.391,6.921,5.16c1.209-1.799,2.381-3.539,3.554-5.282
			c1.082-1.615,1.082-1.615,3.145-1.298c0.234-1.032,0.48-2.065,0.751-3.259c6.409,3.213,12.68,6.358,19.101,9.592
			c-0.776,0.776-1.476,1.47-2.2,2.199c0.578,0.339,1.07,0.631,1.624,0.944c-1.459,1.904-2.882,3.759-4.316,5.626
			c0.744,0.87,1.54,1.671,2.173,2.576c0.304,0.441,0.546,1.165,0.359,1.584c-1.637,3.742-3.34,7.483-6.087,10.704
			c-1.45,1.697-3.15,3.182-5.595,3.657c-0.843,0.162-1.721,0.166-2.763,0.265c-0.204,2.222-0.316,4.514-0.658,6.773
			c-0.436,2.985-0.986,5.958-1.624,8.911c-0.186,0.885-0.719,1.75-1.232,2.546c-1.22,1.925-3.113,2.908-5.559,3.079
			c-0.402,0.037-0.866,0.244-1.179,0.494c-0.915,0.697-1.751,1.471-2.877,2.419c0.679,2.867,1.447,6.118,2.195,9.369
			c0.896,3.877,1.683,7.761,1.627,11.731c-0.008,0.898-0.055,1.804-0.213,2.689c-0.538,3.042,0.419,5.999,0.649,8.993
			c0.121,1.722,0.368,3.434,0.627,5.146c0.118,0.714-0.082,1.168-0.856,1.399c-1.144,0.321-1.567,0.902-1.362,2.082
			c0.339,1.87,0.361,3.786,0.582,5.679c0.092,0.772-0.158,1.226-0.996,1.413c-1.232,0.279-1.706,0.881-1.16,2.025
			c0.254,0.52,0.332,1.109,0.499,1.743c-0.426,0.172-0.838,0.332-1.379,0.55c0.173,1.883,0.334,3.8,0.53,5.726
			c0.344,3.504,0.751,7.006,1.047,10.522c0.132,1.508-0.942,2.498-2.32,3.119c-0.992,0.447-1.176,1.026-1.16,1.956
			c0.195,8.71,1.217,17.349,2.604,25.962c0.065,0.385,0.355,0.779,0.647,1.097c3.243,3.375,5.247,7.242,5.772,11.709
			c0.013,0.182,0.002,0.363,0.004,0.669c-32.741-0.222-65.461-0.444-98.328-0.679c0.153-1.847,0.435-3.598,0.375-5.344
			c-0.056-1.54,0.693-2.202,2.171-2.799c5.566-2.23,11.057-4.615,16.595-6.899c0.79-0.334,1.139-0.688,1.099-1.514
			c-0.173-4.196-0.042-8.418-1.193-12.54c-0.117-0.453-0.22-0.927-0.461-1.324c-1.431-2.285-1.355-4.779-1.165-7.241
			c0.201-2.724,0.664-5.425,0.95-8.137c0.072-0.682,0.004-1.44-0.249-2.074c-0.774-1.846-0.119-3.629,0.175-5.423
			c0.572-3.405,1.282-6.79,1.782-10.206c0.205-1.406-0.003-2.871-0.048-4.297c-0.001-0.183-0.151-0.441-0.314-0.523
			c-1.702-0.772-1.745-2.111-1.476-3.518c0.197-1.057,0.454-2.125,0.851-3.136c1.23-3.068,1.401-6.256,1.257-9.464
			c-0.295-6.545-1.457-13.004-2.759-19.429c-0.282-1.392-0.778-2.774-1.376-4.074c-1.598-3.463-1.277-6.878,0.111-10.302
			c1.241-3.056,2.572-6.092,3.735-9.181c0.436-1.126,0.504-2.363,0.737-3.521c-1.106,0.006-2.009,0.021-2.912,0.003
			c-3.556-0.028-5.626-1.818-5.853-5.018c-0.244-3.492,0.631-6.82,2.047-9.992c1.912-4.239,4.127-8.378,6.279-12.541
			c0.312-0.603,0.409-1.01,0.032-1.643c-0.57-0.939-1.052-1.971-1.248-3.001c-0.217-1.156-0.711-2.059-1.571-2.917
			c-1.011-1.005-1.932-2.1-2.856-3.173c-1.213-1.389-1.431-2.864-0.636-4.535c0.658-1.364,1.128-2.818,1.697-4.284
			c-1.75-0.616-1.792-1.827-1.686-3.089c0.026-0.148,0.037-0.295,0.073-0.431c0.63-2.17,1.086-4.282-1.359-5.901
			c-0.366-0.227-0.432-0.817-0.635-1.246c-0.025-0.011-0.063-0.033-0.063-0.033c-2.75-0.022-3.054-0.451-2.111-2.825
			c0.409-1.012,0.845-2.024,1.064-3.07c0.198-0.965-0.346-1.346-1.375-1.23c-2.323,0.252-3.593-0.265-4.392-2.256
			c-0.624-1.564-1.099-3.261-1.143-4.906c-0.183-6.362,1.407-12.392,5.423-17.665c1.349-1.753,1.654-3.321,1.27-5.256
			c-0.335-1.734-0.47-3.492-0.718-5.238c-0.038-0.351-0.116-0.714-0.268-1.04c-2.972-6.316-3.406-12.936-3.062-19.675
			c0.08-1.545,0.271-3.076,0.315-4.629c0.076-2.315-1.028-4.307-2.33-6.205c-0.442-0.655-0.559-1.143-0.16-1.86
			c0.898-1.647,1.002-3.192-0.225-4.943c-0.949-1.368-1.32-3.123-1.63-4.767c-0.311-1.565,0.058-3.266-0.39-4.783
			c-0.458-1.632-0.329-3.128-0.235-4.753c0.055-1.146-0.905-2.32-1.362-3.508c-0.331-0.873-0.812-1.504-1.82-1.941
			c-1.949-0.853-2.674-2.461-2.23-4.436c0.023-0.102,0.059-0.205,0.11-0.307c0.846-1.591,1.227-3.148-0.903-4.497
			c0.691-0.028,1.017-0.051,1.369-0.064c-0.375-2.438-0.051-2.938,2.567-3.745c1.418-0.425,2.9-0.74,4.529-1.144
			c-0.294-0.84-0.522-1.689-0.868-2.515c-0.532-1.313-0.426-2.516,0.474-3.677c0.21-0.261,0.335-0.581,0.574-0.819
			c0.859-0.912,0.944-1.908,0.537-2.996c-0.141-0.397-0.182-0.818-0.272-1.234c1.245-0.031,1.968,1.338,3.131,0.743
			c0.928-0.468,1.692-1.187,2.592-1.838c0.339,0.257,0.692,0.517,1.095,0.832c0.601-0.615,1.163-1.206,1.824-1.879
			c0.37,0.735,0.7,1.367,1.053,2.057c0.778-0.457,1.479-0.88,2.404-1.442c-0.222,3.35-0.254,6.501-0.716,9.612
			c-0.184,1.226-1.346,2.331-2.067,3.528c0.916,0.211,2.175,0.489,3.418,0.788c0.505,0.108,0.996,0.254,1.474,0.423
			c1.534,0.535,1.647,0.909,0.563,2.175c0.752-0.082,1.393-0.155,2.159-0.237c-0.1,0.431-0.186,0.794-0.271,1.226
			c0.68,0.018,1.293,0.047,2.173,0.079c-0.901,0.719-1.601,1.323-2.375,1.872c-0.527,0.365-0.6,0.729-0.395,1.282
			c0.368,1.032,0.723,2.061,0.919,3.115c0.322,1.664-0.226,2.519-2.034,3.038c-1.506,0.439-3.073,0.673-4.73,1.023
			c0.672,1.279,0.151,2.359-0.822,3.384c-0.178,0.203-0.251,0.624-0.148,0.873c0.597,1.439,1.093,2.931,1.944,4.256
			c1.52,2.361,2.348,4.774,2.083,7.563c-0.537,5.619-0.231,11.232,1.027,16.749c0.578,2.56,1.644,5.016,2.361,7.553
			c1.405,4.95,2.284,9.984,2.298,15.107c0.001,0.215,0.038,0.432,0.051,0.726c0.327,0.023,0.63,0.075,0.932,0.063
			c3.704-0.108,7.407-0.264,11.114-0.34c0.879-0.015,1.479-0.256,2.017-0.883c0.525-0.625,1.175-1.163,1.8-1.777
			c-3.397-3.295-6.854-6.635-10.298-9.988c0.049-0.058,0.112-0.113,0.163-0.181c0.351,0.201,0.718,0.392,1.057,0.606
			c3.779,2.284,7.557,4.543,11.298,6.863c0.694,0.439,1.284,0.492,2.085,0.262c1.279-0.372,2.611-0.673,3.942-0.86
			c0.764-0.108,0.978-0.404,1.026-1.027c0.242-3.949,0.511-7.896,0.768-11.846c0.023-0.273,0.033-0.543,0.234-0.839
			c0.989,4.588,1.98,9.175,2.944,13.675c0.654,0.202,0.654,0.202,0.654,0.202c0.574,0.172,0.672,0.314,0.217,0.316l0,0
			c0.442,0.938,1.061,1.457,2.128,1.634c1.007,0.175,1.977,0.523,2.944,0.833c0.778,0.248,1.534,0.549,2.288,0.83
			c0.099-0.127,0.201-0.238,0.3-0.354c-0.857-0.632-1.701-1.274-2.622-1.959c1.601-1.201,3.079-2.283,4.518-3.404
			c0.349-0.26,0.585-0.625,0.874-0.957c1.815-1.359,3.628-2.716,5.454-4.076c0.314-0.238,0.666-0.434,1.14-0.516
			c-3.007,3.486-6.028,6.972-9.15,10.57c1.522,0.391,1.944,2.157,3.737,1.979c-0.225,0.228-0.462,0.444-0.686,0.661
			c0.328,0.01,0.666,0.087,0.952,0.018c3.199-0.774,6.397-1.574,9.584-2.395c0.251-0.069,0.452-0.318,0.666-0.491
			c2.031-0.442,4.062-0.883,6.096-1.323c0.025,0.046,0.05,0.103,0.077,0.146c-0.539,0.244-1.067,0.494-1.619,0.723
			c-4.459,1.894-8.921,3.811-13.408,5.636c-0.866,0.357-0.776,0.798-0.722,1.433c0.08,0.737,0.63,0.712,1.182,0.766
			c5.808,0.629,11.612,1.257,17.42,2.056c-6.052,0.53-12.089,1.06-18.266,1.589c-0.16,1.191-0.481,2.374-0.399,3.519
			c0.092,1.144,0.591,2.276,0.923,3.431c-0.552,0.173-0.992,0.322-1.493,0.472c0.667,2.81,1.197,5.599,2.014,8.329
			c0.422,1.438,0.012,2.46-1.064,3.361c-0.539,0.455-0.537,0.819-0.268,1.396c1.19,2.501,2.309,5.025,3.49,7.539
			c0.153,0.337,0.418,0.756,0.745,0.869c1.272,0.447,1.753,1.169,1.329,2.251c1.136,0.652,2.181,1.26,3.239,1.866
			c-0.616-0.144-1.259-0.493-1.824-0.4c-1.769,0.259-3.142-0.459-4.514-1.225c0.274-0.227,0.563-0.456,0.837-0.684
			c-0.012-0.115-0.025-0.215-0.038-0.33c-0.779,0.004-1.543-0.003-2.311,0.011c-2.436,0.037-4.873,0.036-7.296,0.116
			c-1.019,0.03-1.899-0.181-2.63-0.802c-2.586-2.176-5.285-4.26-7.693-6.587c-2.261-2.152-4.207-4.571-6.415-7.01
			c-0.602,2.816-1.179,5.485-1.754,8.153c-0.113-2.007-0.199-3.969-1.699-5.584c1.711-1.518,2.511-2.395,0.078-4.367
			c-1.45-1.171-2.11-2.756-1.995-4.56c0.024-0.535-0.066-1.077-0.109-1.62c-0.111,0-0.214,0.011-0.325,0.012
			c0.002,0.442-0.02,0.885,0.007,1.315c0.025,0.352,0.242,0.724,0.143,1.031c-0.446,1.42-0.964,2.828-1.486,4.34
			c-0.492-0.282-1.133-0.642-1.7-0.968c-0.21,3.088-0.422,6.219-0.633,9.352c-0.136,0.001-0.136,0.001-0.136,0.001
			c-0.146-0.013-0.276-2.001-0.288-4.418l-0.011-2.08c-1.506,2.752-0.549,5.866-2.23,8.416c-1.634,2.469-3.254,4.938-4.873,7.419
			c-0.104-0.101-0.203-0.216-0.292-0.316c-0.664,0.104-1.331,0.211-2.135,0.338c-0.09-2.72,2.57-3.847,4.305-5.511
			c-0.061-0.09-0.137-0.18-0.2-0.259c-1.104,0.617-1.104,0.617-1.104,0.617c-1.274,0.723-2.321,0.249-2.328-1.053l0,0
			c-0.101-0.014-0.2-0.024-0.315-0.033c-1.568,2.368-0.562,5.288-1.743,7.744c-0.101,0-0.215,0.001-0.215,0.001
			c-0.28-0.997-0.461-2.006-0.68-3.162c-1.093,4.874-0.956,10.101-6.212,13.347c-0.166-0.726-0.273-1.461-0.074-2.12
			c0.642-2.181,1.384-4.341,2.104-6.51c0.89-2.704,1.78-5.396,2.669-8.102c-0.124-0.053-0.251-0.099-0.375-0.156
			c-0.587,1.07-1.374,2.094-1.719,3.231c-1.124,3.657-2.112,7.348-3.071,11.05c-0.247,0.931-0.265,1.931-0.224,2.883
			c0.014,0.385,0.468,0.745,0.721,1.107c0.362-0.203,0.802-0.353,1.063-0.638c0.602-0.628,1.063-1.356,1.661-1.983
			c1.088-1.138,2.249-2.246,3.389-3.363c0.1,0.079,0.2,0.146,0.299,0.225c-2.656,3.574-5.615,6.98-7.305,11.073
			c7.308-8.023,13.785-16.493,17.627-26.402c-0.264,2.2-0.578,4.368-0.959,6.526c-0.197,1.046-0.343,2.158-0.827,3.091
			c-3.931,7.425-6.78,15.163-8.259,23.292c-0.318,1.747-0.586,3.495-0.916,5.447c-1.87-2.384-1.369-4.938-1.469-7.488
			c-1.097,1.662-0.901,5.494,0.402,7.267c1.427,1.954,1.032,3.512-0.253,5.218c-0.387,0.525-0.684,1.127-0.958,1.729
			c-1.803,3.82-3.706,7.617-5.329,11.506c-0.945,2.25-1.258,4.667-0.971,7.105c0.534-1.354,0.905-2.749,1.45-4.079
			c0.857-2.08,1.556-2.425,4.131-2.154c0.943-2.399,1.925-4.829,2.893-7.273l0.162-0.011c-0.141,2.063-0.281,4.141-0.41,6.217
			c1.664-3.946,3.015-7.965,5.332-11.641c-1.338,3.725-2.688,7.465-4.026,11.204c0.362-0.094,0.476-0.275,0.563-0.459
			c2.867-6.772,6.602-13.176,11.272-19.053c5.416-6.799,11.197-13.36,16.841-20.013c1.712-2.003,3.509-3.952,5.258-5.923
			c0.075,0.047,0.14,0.09,0.215,0.136c-3.192,4.392-6.374,8.787-9.554,13.18c-0.063-0.033-0.14-0.067-0.203-0.111
			c0.71-1.239,1.42-2.478,2.141-3.731c-3.098,3.338-6.018,6.755-8.889,10.209c-4.681,5.636-9.237,11.353-12.646,17.744
			c-0.536,1.001-0.996,2.035-1.493,3.058c2.394-3.527,5.443-6.527,8.834-9.22c3.701-2.944,7.506-5.808,11.396-8.551
			c2.494-1.748,4.669-3.698,6.388-6.064c1.437-1.983,2.844-3.984,4.279-5.978c0.201-0.271,0.387-0.545,0.588-0.83
			c0.048,0.022,0.1,0.046,0.151,0.068c-0.074,0.384-0.147,0.773-0.221,1.157c-0.039-0.035-0.064-0.068-0.104-0.102
			c2.743-4.333,5.483-8.669,8.226-13.005c-0.012-0.032-0.025-0.079-0.039-0.123c-1.424,1.175-2.85,2.349-4.276,3.524
			c-0.063-0.045-0.115-0.1-0.176-0.145c1.336-1.266,2.674-2.532,4.048-3.832c-2.62,0.444-4.827,1.557-6.752,3.176
			c0.858-1.807,2.648-2.658,4.653-3.641c-1.043-0.099-1.823-0.185-2.6-0.26c1.292-0.143,2.573-0.25,3.831-0.134
			c1.33,0.119,2.651,0.362,3.635,1.389c0.404,0.43,1.121,0.732,1.751,0.864c2.537,0.555,5.113,1.017,7.666,1.515
			c0.038-0.09,0.062-0.169,0.098-0.249c-1.07-0.516-2.151-1.045-3.171-1.526C192.044,127.238,193.052,128.253,193.046,127.176"/>
	</g>
	<path id="XMLID_4187_" fill="#147EC2" d="M182.896,141.892c1.24,2.024,1.074,3.929,0.781,5.803
		c-0.818,5.221-2.877,10.132-4.699,15.096c-2.936,8.034-5.809,16.079-8.696,24.124c-0.198,0.522-0.321,1.069-0.745,1.548
		c0.617-2.399,1.093-4.837,1.886-7.177c1.944-5.683,4.089-11.32,6.058-16.989c2.413-6.976,3.972-14.106,5.141-21.326
		C182.661,142.699,182.76,142.426,182.896,141.892"/>
	<path id="XMLID_4186_" fill="#147EC2" d="M174.807,127.924c0.831-4.916,1.658-9.842,2.453-14.564
		c0.927,2.093,1.265,4.506,0.461,6.94c-0.841,2.577-1.844,5.101-2.775,7.646C174.908,127.946,174.859,127.934,174.807,127.924"/>
	<path id="XMLID_4185_" fill="#147EC2" d="M172.755,110.193c2.942-2.045,5.088-4.71,6.984-7.566
		c0.112,0.032,0.224,0.067,0.351,0.099c-0.136,0.615-0.257,1.227-0.393,1.841c-0.417,1.874-0.835,3.759-1.288,5.813
		c-1.632,0.541-1.781,0.939-1.425,4.237c-0.662,0.685-1.2,1.241-1.81,1.881c0.406-1.623,0.8-3.181,1.17-4.757
		c0.367-1.522,0.725-3.056,1.081-4.553c-1.111,0.889-2.164,1.803-3.302,2.614c-0.35,0.25-0.915,0.253-1.392,0.37L172.755,110.193z"
		/>
	<path id="XMLID_4184_" fill="#147EC2" d="M174.709,103.416c0.961-1.104,1.923-2.209,2.884-3.313
		c0.724,1.527,0.739,1.537-0.792,2.407c-0.638,0.366-1.326,0.7-1.988,1.042C174.773,103.508,174.749,103.463,174.709,103.416"/>
</g>
</svg>
